<svg width="50" height="43" viewBox="0 0 50 43" fill="none" xmlns="http://www.w3.org/2000/svg">
<path d="M40 28.375H35V32.9583H40V28.375ZM40 19.2083H35V23.7917H40V19.2083ZM45 37.5417H25V32.9583H30V28.375H25V23.7917H30V19.2083H25V14.625H45V37.5417ZM20 10.0417H15V5.45833H20V10.0417ZM20 19.2083H15V14.625H20V19.2083ZM20 28.375H15V23.7917H20V28.375ZM20 37.5417H15V32.9583H20V37.5417ZM10 10.0417H5V5.45833H10V10.0417ZM10 19.2083H5V14.625H10V19.2083ZM10 28.375H5V23.7917H10V28.375ZM10 37.5417H5V32.9583H10V37.5417ZM25 10.0417V0.875H0V42.125H50V10.0417H25Z" fill="white"/>
</svg>
