<svg width="52" height="53" viewBox="0 0 52 53" fill="none" xmlns="http://www.w3.org/2000/svg">
<g clip-path="url(#clip0_331_62)">
<g clip-path="url(#clip1_331_62)">
<path fill-rule="evenodd" clip-rule="evenodd" d="M26 11.481C18.2673 11.481 12 17.5256 12 24.981C12 32.4363 18.2673 38.481 26 38.481C33.7315 38.481 40 32.4363 40 24.981C40 17.5256 33.7315 11.481 26 11.481ZM26.1633 32.8762C21.6507 32.8762 17.9967 29.3437 17.9967 24.981C17.9967 20.6182 21.6507 17.0857 26.1633 17.0857C28.3683 17.0857 30.2117 17.8698 31.6257 19.1433L29.3227 21.3686V21.3641C28.4652 20.5743 27.3778 20.1693 26.1633 20.1693C23.4683 20.1693 21.2785 22.3698 21.2785 24.9765C21.2785 27.5808 23.4683 29.7881 26.1633 29.7881C28.6087 29.7881 30.2723 28.4358 30.6153 26.5796H26.1633V23.5005H33.8458C33.9485 24.0292 34.0033 24.5805 34.0033 25.1587C34.0033 29.67 30.8802 32.8762 26.1633 32.8762Z" fill="#202020"/>
</g>
<path d="M51.5 24.981C51.5 38.2082 40.1117 48.981 26 48.981C11.8883 48.981 0.5 38.2082 0.5 24.981C0.5 11.7537 11.8883 0.980957 26 0.980957C40.1117 0.980957 51.5 11.7537 51.5 24.981Z" stroke="#202020"/>
</g>
<defs>
<clipPath id="clip0_331_62">
<rect width="52" height="52.1875" fill="white" transform="translate(0 0.480957)"/>
</clipPath>
<clipPath id="clip1_331_62">
<rect width="28" height="27" fill="white" transform="translate(12 11.481)"/>
</clipPath>
</defs>
</svg>
