<svg width="844" height="886" viewBox="0 0 844 886" fill="none" xmlns="http://www.w3.org/2000/svg">
<g opacity="0.6">
<line y1="-0.5" x2="48.2583" y2="-0.5" transform="matrix(0.707907 -0.706306 0.707907 0.706306 655.492 144.339)" stroke="white"/>
<line y1="-0.5" x2="82.323" y2="-0.5" transform="matrix(0.707907 -0.706306 0.707907 0.706306 636.401 148.348)" stroke="white"/>
<line y1="-0.5" x2="103.613" y2="-0.5" transform="matrix(0.707907 -0.706306 0.707907 0.706306 620.325 149.351)" stroke="white"/>
<line y1="-0.5" x2="122.065" y2="-0.5" transform="matrix(0.707907 -0.706306 0.707907 0.706306 605.253 146.343)" stroke="white"/>
<line y1="-0.5" x2="134.839" y2="-0.5" transform="matrix(0.707907 -0.706306 0.707907 0.706306 590.181 141.331)" stroke="white"/>
<line y1="-0.5" x2="140.517" y2="-0.5" transform="matrix(0.707907 -0.706306 0.707907 0.706306 577.119 132.309)" stroke="white"/>
<line y1="-0.5" x2="140.517" y2="-0.5" transform="matrix(0.707907 -0.706306 0.707907 0.706306 566.067 122.283)" stroke="white"/>
<line y1="-0.5" x2="132.001" y2="-0.5" transform="matrix(0.707907 -0.706306 0.707907 0.706306 557.024 106.243)" stroke="white"/>
<line y1="-0.5" x2="114.968" y2="-0.5" transform="matrix(0.707907 -0.706306 0.707907 0.706306 552 90.2029)" stroke="white"/>
<line y1="-0.5" x2="86.5811" y2="-0.5" transform="matrix(0.707907 -0.706306 0.707907 0.706306 552 70.1533)" stroke="white"/>
<line y1="-0.5" x2="46.839" y2="-0.5" transform="matrix(0.707907 -0.706306 0.707907 0.706306 559.033 49.1006)" stroke="white"/>
</g>
<g opacity="0.6">
<line y1="-0.5" x2="48.2583" y2="-0.5" transform="matrix(0.707907 -0.706306 0.707907 0.706306 236.492 880.339)" stroke="white"/>
<line y1="-0.5" x2="82.323" y2="-0.5" transform="matrix(0.707907 -0.706306 0.707907 0.706306 217.401 884.348)" stroke="white"/>
<line y1="-0.5" x2="103.613" y2="-0.5" transform="matrix(0.707907 -0.706306 0.707907 0.706306 201.325 885.351)" stroke="white"/>
<line y1="-0.5" x2="122.065" y2="-0.5" transform="matrix(0.707907 -0.706306 0.707907 0.706306 186.253 882.343)" stroke="white"/>
<line y1="-0.5" x2="134.839" y2="-0.5" transform="matrix(0.707907 -0.706306 0.707907 0.706306 171.181 877.331)" stroke="white"/>
<line y1="-0.5" x2="140.517" y2="-0.5" transform="matrix(0.707907 -0.706306 0.707907 0.706306 158.119 868.309)" stroke="white"/>
<line y1="-0.5" x2="140.517" y2="-0.5" transform="matrix(0.707907 -0.706306 0.707907 0.706306 147.067 858.283)" stroke="white"/>
<line y1="-0.5" x2="132.001" y2="-0.5" transform="matrix(0.707907 -0.706306 0.707907 0.706306 138.024 842.243)" stroke="white"/>
<line y1="-0.5" x2="114.968" y2="-0.5" transform="matrix(0.707907 -0.706306 0.707907 0.706306 133 826.203)" stroke="white"/>
<line y1="-0.5" x2="86.5811" y2="-0.5" transform="matrix(0.707907 -0.706306 0.707907 0.706306 133 806.153)" stroke="white"/>
<line y1="-0.5" x2="46.839" y2="-0.5" transform="matrix(0.707907 -0.706306 0.707907 0.706306 140.033 785.101)" stroke="white"/>
</g>
<g opacity="0.6">
<line y1="-0.5" x2="95.8639" y2="-0.5" transform="matrix(0.711837 -0.702345 0.711837 0.702345 207.725 268.339)" stroke="white"/>
<line y1="-0.5" x2="163.532" y2="-0.5" transform="matrix(0.711837 -0.702345 0.711837 0.702345 169.592 276.26)" stroke="white"/>
<line y1="-0.5" x2="205.825" y2="-0.5" transform="matrix(0.711837 -0.702345 0.711837 0.702345 137.479 278.239)" stroke="white"/>
<line y1="-0.5" x2="242.479" y2="-0.5" transform="matrix(0.711837 -0.702345 0.711837 0.702345 107.373 272.299)" stroke="white"/>
<line y1="-0.5" x2="267.855" y2="-0.5" transform="matrix(0.711837 -0.702345 0.711837 0.702345 77.2676 262.398)" stroke="white"/>
<line y1="-0.5" x2="279.133" y2="-0.5" transform="matrix(0.711837 -0.702345 0.711837 0.702345 51.176 244.576)" stroke="white"/>
<line y1="-0.5" x2="279.133" y2="-0.5" transform="matrix(0.711837 -0.702345 0.711837 0.702345 29.0986 224.772)" stroke="white"/>
<line y1="-0.5" x2="262.216" y2="-0.5" transform="matrix(0.711837 -0.702345 0.711837 0.702345 11.0352 193.088)" stroke="white"/>
<line y1="-0.5" x2="228.382" y2="-0.5" transform="matrix(0.711837 -0.702345 0.711837 0.702345 1 161.403)" stroke="white"/>
<line y1="-0.5" x2="171.991" y2="-0.5" transform="matrix(0.711837 -0.702345 0.711837 0.702345 1 121.798)" stroke="white"/>
<line y1="-0.5" x2="93.0443" y2="-0.5" transform="matrix(0.711837 -0.702345 0.711837 0.702345 15.0493 80.2122)" stroke="white"/>
</g>
<g opacity="0.6">
<line y1="-0.5" x2="96.3961" y2="-0.5" transform="matrix(0.707907 -0.706306 0.707907 0.706306 765.725 859.339)" stroke="white"/>
<line y1="-0.5" x2="164.44" y2="-0.5" transform="matrix(0.707907 -0.706306 0.707907 0.706306 727.592 867.349)" stroke="white"/>
<line y1="-0.5" x2="206.968" y2="-0.5" transform="matrix(0.707907 -0.706306 0.707907 0.706306 695.479 869.351)" stroke="white"/>
<line y1="-0.5" x2="243.825" y2="-0.5" transform="matrix(0.707907 -0.706306 0.707907 0.706306 665.373 863.343)" stroke="white"/>
<line y1="-0.5" x2="269.342" y2="-0.5" transform="matrix(0.707907 -0.706306 0.707907 0.706306 635.268 853.332)" stroke="white"/>
<line y1="-0.5" x2="280.683" y2="-0.5" transform="matrix(0.707907 -0.706306 0.707907 0.706306 609.176 835.309)" stroke="white"/>
<line y1="-0.5" x2="280.683" y2="-0.5" transform="matrix(0.707907 -0.706306 0.707907 0.706306 587.099 815.283)" stroke="white"/>
<line y1="-0.5" x2="263.672" y2="-0.5" transform="matrix(0.707907 -0.706306 0.707907 0.706306 569.035 783.244)" stroke="white"/>
<line y1="-0.5" x2="229.649" y2="-0.5" transform="matrix(0.707907 -0.706306 0.707907 0.706306 559 751.203)" stroke="white"/>
<line y1="-0.5" x2="172.946" y2="-0.5" transform="matrix(0.707907 -0.706306 0.707907 0.706306 559 711.154)" stroke="white"/>
<line y1="-0.5" x2="93.5609" y2="-0.5" transform="matrix(0.707907 -0.706306 0.707907 0.706306 573.049 669.101)" stroke="white"/>
</g>
</svg>
