<svg width="69" height="64" viewBox="0 0 69 64" fill="none" xmlns="http://www.w3.org/2000/svg">
<path d="M51.5012 23.0171C51.8473 22.6957 52.0417 22.26 52.0417 21.8057C52.0417 21.3514 51.8473 20.9157 51.5012 20.5943L46.7944 16.2286C46.444 15.9258 45.9806 15.7609 45.5018 15.7687C45.023 15.7766 44.5662 15.9565 44.2275 16.2706C43.8889 16.5847 43.6949 17.0084 43.6865 17.4525C43.678 17.8966 43.8558 18.3265 44.1823 18.6514L48.8866 23.0171C49.2331 23.3382 49.7029 23.5185 50.1926 23.5185C50.6824 23.5185 51.1522 23.3382 51.4987 23.0171H51.5012ZM26.4074 43.8674C26.5889 44.0244 26.7346 44.2136 26.8356 44.4239C26.9366 44.6342 26.9909 44.8612 26.9953 45.0914C26.9997 45.3215 26.954 45.5502 26.8611 45.7636C26.7681 45.9771 26.6298 46.171 26.4543 46.3338C26.2788 46.4966 26.0697 46.6249 25.8396 46.7111C25.6094 46.7974 25.3629 46.8397 25.1148 46.8356C24.8666 46.8316 24.6219 46.7812 24.3952 46.6875C24.1685 46.5938 23.9644 46.4587 23.7952 46.2903L19.0884 41.9269C18.762 41.6019 18.5842 41.1721 18.5927 40.7279C18.6011 40.2838 18.7951 39.8601 19.1337 39.546C19.4723 39.2319 19.9292 39.052 20.408 39.0442C20.8868 39.0363 21.3502 39.2012 21.7006 39.504L26.4074 43.8674ZM61.0059 7.47428C60.5027 7.0075 59.9053 6.63722 59.2478 6.3846C58.5903 6.13198 57.8856 6.00195 57.174 6.00195C56.4623 6.00195 55.7576 6.13198 55.1001 6.3846C54.4426 6.63722 53.8452 7.0075 53.342 7.47428L51.1291 9.52685L50.2247 8.688C49.5201 8.03361 48.6695 7.53023 47.7328 7.21321C46.7961 6.8962 45.7959 6.77324 44.8025 6.85296C43.8091 6.93269 42.8466 7.21317 41.9825 7.67471C41.1184 8.13624 40.3737 8.76764 39.8007 9.52457C38.4675 9.22624 37.074 9.25076 35.754 9.59579C34.4339 9.94081 33.2316 10.5948 32.2625 11.4949L31.708 12.0069C30.964 12.6967 30.3739 13.5157 29.9712 14.4172C29.5685 15.3186 29.3613 16.2848 29.3613 17.2606C29.3613 18.2363 29.5685 19.2025 29.9712 20.104C30.3739 21.0054 30.964 21.8244 31.708 22.5143L34.4187 25.0263L26.9791 31.9246L24.2733 29.4171C22.7713 28.0241 20.7343 27.2416 18.6104 27.2416C16.4864 27.2416 14.4494 28.0241 12.9474 29.4171L12.393 29.9314C11.4226 30.8308 10.7178 31.9464 10.3462 33.1713C9.97463 34.3961 9.94881 35.689 10.2712 36.9257C9.45515 37.4572 8.77442 38.1479 8.27683 38.9493C7.77923 39.7508 7.47684 40.6436 7.39089 41.565C7.30493 42.4865 7.4375 43.4141 7.77928 44.283C8.12106 45.1518 8.66377 45.9407 9.36928 46.5943L10.2712 47.4286L7.99667 49.5406C6.98037 50.4832 6.40942 51.7617 6.40942 53.0948C6.40942 54.428 6.98037 55.7065 7.99667 56.6491C9.01297 57.5918 10.3914 58.1214 11.8286 58.1214C13.2659 58.1214 14.6443 57.5918 15.6606 56.6491L17.9351 54.5371L18.8395 55.376C19.5443 56.0296 20.3948 56.5323 21.3312 56.8489C22.2676 57.1654 23.2673 57.2881 24.2603 57.2084C25.2532 57.1287 26.2154 56.8485 27.0792 56.3874C27.9431 55.9264 28.6877 55.2956 29.261 54.5394C30.5946 54.8382 31.9886 54.8139 33.3091 54.4688C34.6296 54.1238 35.8323 53.4696 36.8017 52.5691L37.3537 52.0549C38.8555 50.6617 39.6992 48.7724 39.6992 46.8023C39.6992 44.8322 38.8555 42.9428 37.3537 41.5497L34.6455 39.0354L42.0827 32.1371L44.7934 34.6514C46.2953 36.0444 48.3323 36.827 50.4563 36.827C52.5803 36.827 54.6173 36.0444 56.1192 34.6514L56.6712 34.1371C57.6421 33.238 58.3474 32.1225 58.7193 30.8976C59.0913 29.6728 59.1175 28.3798 58.7955 27.1429C59.6115 26.6114 60.2922 25.9207 60.7898 25.1192C61.2874 24.3178 61.5898 23.425 61.6758 22.5035C61.7617 21.5821 61.6292 20.6544 61.2874 19.7856C60.9456 18.9167 60.4029 18.1278 59.6974 17.4743L58.7955 16.6377L61.0059 14.5874C61.5092 14.1207 61.9084 13.5666 62.1807 12.9567C62.4531 12.3469 62.5933 11.6932 62.5933 11.0331C62.5933 10.373 62.4531 9.7194 62.1807 9.10956C61.9084 8.49971 61.5092 7.94559 61.0059 7.47885V7.47428ZM32.0259 36.6103L29.5912 34.352L37.0284 27.4537L39.4656 29.712L32.0259 36.6103ZM15.3181 52.1097L13.0411 54.2217C12.7173 54.5173 12.2807 54.6823 11.8264 54.6807C11.372 54.6792 10.9368 54.5112 10.6153 54.2134C10.2939 53.9155 10.1124 53.512 10.1102 53.0906C10.1081 52.6692 10.2855 52.264 10.6039 51.9634L12.8809 49.8514L15.3156 52.1097H15.3181ZM56.1759 14.2126L53.7412 11.952L55.9517 9.90171C56.2755 9.6061 56.7121 9.44112 57.1664 9.44268C57.6207 9.44425 58.056 9.61223 58.3774 9.91006C58.6988 10.2079 58.8804 10.6114 58.8825 11.0328C58.8847 11.4542 58.7072 11.8594 58.3889 12.16L56.1759 14.2126ZM43.1744 11.1131C43.7626 10.5677 44.5604 10.2612 45.3922 10.2612C46.224 10.2612 47.0218 10.5677 47.6101 11.1131L57.0803 19.8994C57.4547 20.2473 57.728 20.6776 57.8746 21.15C58.0213 21.6223 58.0365 22.1215 57.9189 22.6008C57.8012 23.0801 57.5546 23.524 57.202 23.891C56.8494 24.258 56.4023 24.5361 55.9024 24.6994C55.6541 24.7798 55.4272 24.9084 55.2367 25.0765C55.0463 25.2447 54.8968 25.4487 54.7981 25.6748C54.6994 25.9009 54.6539 26.1439 54.6646 26.3876C54.6753 26.6313 54.7419 26.8701 54.86 27.088C55.2661 27.8392 55.4069 28.69 55.2622 29.5196C55.1176 30.3492 54.6949 31.1155 54.0542 31.7097L53.4997 32.224C53.0993 32.5955 52.6238 32.8901 52.1006 33.0912C51.5773 33.2922 51.0165 33.3957 50.4502 33.3957C49.8838 33.3957 49.323 33.2922 48.7997 33.0912C48.2765 32.8901 47.8011 32.5955 47.4006 32.224L34.3226 20.0914C33.9221 19.72 33.6044 19.279 33.3877 18.7937C33.1709 18.3084 33.0594 17.7882 33.0594 17.2629C33.0594 16.7375 33.1709 16.2174 33.3877 15.732C33.6044 15.2467 33.9221 14.8057 34.3226 14.4343L34.8771 13.92C35.5179 13.326 36.344 12.9342 37.2384 12.8C38.1327 12.6659 39.0499 12.7962 39.8599 13.1726C40.0948 13.2821 40.3523 13.3439 40.615 13.3538C40.8778 13.3637 41.1398 13.3215 41.3835 13.23C41.6273 13.1385 41.8471 12.9998 42.0285 12.8231C42.2098 12.6465 42.3484 12.436 42.4351 12.2057C42.5829 11.8103 42.8294 11.4354 43.1744 11.1131ZM21.6587 31.84L34.7391 43.9726C35.1396 44.344 35.4573 44.785 35.6741 45.2703C35.8908 45.7556 36.0024 46.2758 36.0024 46.8011C36.0024 47.3265 35.8908 47.8466 35.6741 48.332C35.4573 48.8173 35.1396 49.2583 34.7391 49.6297L34.1846 50.1417C33.5443 50.7364 32.7183 51.1289 31.8239 51.2634C30.9294 51.398 30.012 51.2678 29.2019 50.8914C28.9671 50.7818 28.7098 50.7199 28.4472 50.7099C28.1845 50.6998 27.9226 50.7419 27.6789 50.8331C27.4352 50.9244 27.2153 51.0629 27.0338 51.2393C26.8524 51.4156 26.7136 51.6259 26.6267 51.856C26.4511 52.3201 26.1515 52.7352 25.7559 53.0627C25.3603 53.3901 24.8816 53.6192 24.3646 53.7283C23.8476 53.8375 23.3092 53.8232 22.7997 53.6868C22.2903 53.5504 21.8265 53.2964 21.4517 52.9486L11.9765 44.1646C11.6015 43.8167 11.3277 43.3863 11.1808 42.9136C11.0338 42.441 11.0184 41.9415 11.1361 41.4618C11.2537 40.9821 11.5006 40.5379 11.8535 40.1708C12.2065 39.8036 12.6541 39.5254 13.1544 39.3623C13.4022 39.2816 13.6285 39.153 13.8185 38.9848C14.0084 38.8167 14.1575 38.6129 14.2559 38.3872C14.3543 38.1614 14.3997 37.9188 14.3891 37.6754C14.3785 37.4321 14.3121 37.1937 14.1944 36.976C13.7883 36.2242 13.6479 35.3729 13.793 34.5429C13.9381 33.7128 14.3613 32.9463 15.0026 32.352L15.5571 31.84C15.9576 31.4685 16.433 31.1738 16.9562 30.9728C17.4795 30.7718 18.0403 30.6683 18.6067 30.6683C19.173 30.6683 19.7338 30.7718 20.2571 30.9728C20.7803 31.1738 21.2558 31.4685 21.6562 31.84H21.6587Z" fill="white"/>
</svg>
