<svg width="60" height="57" viewBox="0 0 60 57" fill="none" xmlns="http://www.w3.org/2000/svg">
<g clip-path="url(#clip0_331_140)">
<path d="M52.4999 20.4621V6.76875C52.5021 6.11405 52.3681 5.46539 52.1057 4.86001C51.8433 4.25463 51.4576 3.70444 50.9708 3.24103C50.484 2.77762 49.9056 2.41011 49.2689 2.1596C48.6322 1.90909 47.9496 1.78052 47.2605 1.78125H32.8546C31.91 1.7831 31.0043 2.13872 30.3339 2.77096L1.53393 30.1232C0.551679 31.0593 0.00012207 32.3272 0.00012207 33.6489C0.00012207 34.9707 0.551679 36.2386 1.53393 37.1747L15.2449 50.2001C16.2299 51.1334 17.5644 51.6576 18.9556 51.6576C20.3468 51.6576 21.6813 51.1334 22.6663 50.2001L51.4581 22.8568C52.1239 22.2201 52.4982 21.3595 52.4999 20.4621ZM41.2499 16.0313C40.5083 16.0313 39.7832 15.8223 39.1665 15.4309C38.5499 15.0394 38.0692 14.483 37.7854 13.8321C37.5016 13.1811 37.4273 12.4648 37.572 11.7737C37.7167 11.0827 38.0738 10.4479 38.5983 9.94969C39.1227 9.45146 39.7909 9.11217 40.5184 8.97471C41.2458 8.83725 41.9998 8.90779 42.685 9.17743C43.3702 9.44707 43.9559 9.90368 44.368 10.4895C44.78 11.0754 44.9999 11.7642 44.9999 12.4688C44.9999 13.4136 44.6049 14.3197 43.9016 14.9878C43.1983 15.6559 42.2445 16.0313 41.2499 16.0313Z" fill="white"/>
<path d="M58.125 7.125C57.6277 7.125 57.1508 7.31267 56.7992 7.64672C56.4475 7.98077 56.25 8.43383 56.25 8.90625V23.0861L25.6277 52.1784C25.4463 52.3421 25.3012 52.5387 25.201 52.7566C25.1008 52.9745 25.0475 53.2092 25.0443 53.4469C25.0411 53.6847 25.0881 53.9206 25.1824 54.1409C25.2766 54.3611 25.4164 54.5612 25.5934 54.7293C25.7703 54.8974 25.9809 55.0302 26.2128 55.1197C26.4446 55.2093 26.6929 55.2539 26.9432 55.2509C27.1934 55.2478 27.4405 55.1972 27.6699 55.102C27.8992 55.0068 28.1061 54.869 28.2785 54.6966L58.9816 25.5287C59.3082 25.2169 59.5664 24.8467 59.7413 24.4395C59.9161 24.0322 60.004 23.596 60 23.1562V8.90625C60 8.43383 59.8025 7.98077 59.4508 7.64672C59.0992 7.31267 58.6223 7.125 58.125 7.125Z" fill="white"/>
</g>
<defs>
<clipPath id="clip0_331_140">
<rect width="60" height="57" fill="white"/>
</clipPath>
</defs>
</svg>
