<svg width="15" height="16" viewBox="0 0 15 16" fill="none" xmlns="http://www.w3.org/2000/svg">
<path d="M7.5 1.83252C3.87598 1.83252 0.9375 4.67826 0.9375 8.18791C0.9375 11.6976 3.87598 14.5433 7.5 14.5433C11.124 14.5433 14.0625 11.6976 14.0625 8.18791C14.0625 4.67826 11.124 1.83252 7.5 1.83252ZM7.5 13.4652C4.49121 13.4652 2.05078 11.1018 2.05078 8.18791C2.05078 5.27408 4.49121 2.91067 7.5 2.91067C10.5088 2.91067 12.9492 5.27408 12.9492 8.18791C12.9492 11.1018 10.5088 13.4652 7.5 13.4652ZM7.58203 5.9082C8.3584 5.9082 8.88574 6.38769 8.94434 7.09133C8.94873 7.15091 9 7.1963 9.06152 7.1963H9.89209C9.93018 7.1963 9.96094 7.16651 9.96094 7.12963C9.96094 5.89969 8.95898 5.03859 7.57764 5.03859C5.96777 5.03859 5.03906 6.0912 5.03906 7.83042V8.57236C5.03906 10.2988 5.96777 11.3372 7.57764 11.3372C8.95459 11.3372 9.96094 10.5031 9.96094 9.33132C9.96094 9.29443 9.93018 9.26464 9.89209 9.26464H9.06006C8.99854 9.26464 8.94873 9.31004 8.94287 9.3682C8.88135 10.0222 8.35547 10.4719 7.58057 10.4719C6.62402 10.4719 6.08496 9.79237 6.08496 8.57662V7.83042C6.08643 6.59623 6.62695 5.9082 7.58203 5.9082Z" fill="#202020"/>
</svg>
