<svg width="143" height="420" viewBox="0 0 143 420" fill="none" xmlns="http://www.w3.org/2000/svg">
<g opacity="0.6">
<line y1="-0.5" x2="47.5395" y2="-0.5" transform="matrix(0.715195 -0.698925 0.715195 0.698925 104 132.929)" stroke="#5A0B19"/>
<line y1="-0.5" x2="81.0968" y2="-0.5" transform="matrix(0.715195 -0.698925 0.715195 0.698925 85 136.838)" stroke="#5A0B19"/>
<line y1="-0.5" x2="102.07" y2="-0.5" transform="matrix(0.715195 -0.698925 0.715195 0.698925 69 137.815)" stroke="#5A0B19"/>
<line y1="-0.5" x2="120.247" y2="-0.5" transform="matrix(0.715195 -0.698925 0.715195 0.698925 54 134.883)" stroke="#5A0B19"/>
<line y1="-0.5" x2="132.831" y2="-0.5" transform="matrix(0.715195 -0.698925 0.715195 0.698925 39 129.998)" stroke="#5A0B19"/>
<line y1="-0.5" x2="138.424" y2="-0.5" transform="matrix(0.715195 -0.698925 0.715195 0.698925 26 121.203)" stroke="#5A0B19"/>
<line y1="-0.5" x2="138.424" y2="-0.5" transform="matrix(0.715195 -0.698925 0.715195 0.698925 15 111.429)" stroke="#5A0B19"/>
<line y1="-0.5" x2="130.034" y2="-0.5" transform="matrix(0.715195 -0.698925 0.715195 0.698925 6 95.7939)" stroke="#5A0B19"/>
<line y1="-0.5" x2="113.256" y2="-0.5" transform="matrix(0.715195 -0.698925 0.715195 0.698925 1 80.1572)" stroke="#5A0B19"/>
<line y1="-0.5" x2="85.2914" y2="-0.5" transform="matrix(0.715195 -0.698925 0.715195 0.698925 1 60.6128)" stroke="#5A0B19"/>
<line y1="-0.5" x2="46.1413" y2="-0.5" transform="matrix(0.715195 -0.698925 0.715195 0.698925 8 40.0908)" stroke="#5A0B19"/>
</g>
<g opacity="0.6">
<ellipse cx="18" cy="340.849" rx="3" ry="2.84922" fill="#161B24"/>
<ellipse cx="18" cy="356.045" rx="3" ry="2.84922" fill="#161B24"/>
<ellipse cx="18" cy="371.241" rx="3" ry="2.84922" fill="#161B24"/>
<ellipse cx="40" cy="371.241" rx="3" ry="2.84922" fill="#161B24"/>
<ellipse cx="62" cy="371.241" rx="3" ry="2.84922" fill="#161B24"/>
<ellipse cx="84" cy="371.241" rx="3" ry="2.84922" fill="#161B24"/>
<ellipse cx="106" cy="371.241" rx="3" ry="2.84922" fill="#161B24"/>
<ellipse cx="128" cy="371.241" rx="3" ry="2.84922" fill="#161B24"/>
<ellipse cx="128" cy="386.436" rx="3" ry="2.84922" fill="#161B24"/>
<ellipse cx="106" cy="386.436" rx="3" ry="2.84922" fill="#161B24"/>
<ellipse cx="84" cy="386.436" rx="3" ry="2.84922" fill="#161B24"/>
<ellipse cx="62" cy="386.436" rx="3" ry="2.84922" fill="#161B24"/>
<ellipse cx="40" cy="386.436" rx="3" ry="2.84922" fill="#161B24"/>
<ellipse cx="18" cy="386.436" rx="3" ry="2.84922" fill="#161B24"/>
<ellipse cx="18" cy="401.632" rx="3" ry="2.84922" fill="#161B24"/>
<ellipse cx="18" cy="416.828" rx="3" ry="2.84922" fill="#161B24"/>
<ellipse cx="40" cy="416.828" rx="3" ry="2.84922" fill="#161B24"/>
<ellipse cx="62" cy="416.828" rx="3" ry="2.84922" fill="#161B24"/>
<ellipse cx="84" cy="416.828" rx="3" ry="2.84922" fill="#161B24"/>
<ellipse cx="106" cy="416.828" rx="3" ry="2.84922" fill="#161B24"/>
<ellipse cx="128" cy="416.828" rx="3" ry="2.84922" fill="#161B24"/>
<ellipse cx="40" cy="401.632" rx="3" ry="2.84922" fill="#161B24"/>
<ellipse cx="62" cy="401.632" rx="3" ry="2.84922" fill="#161B24"/>
<ellipse cx="84" cy="401.632" rx="3" ry="2.84922" fill="#161B24"/>
<ellipse cx="106" cy="401.632" rx="3" ry="2.84922" fill="#161B24"/>
<ellipse cx="128" cy="401.632" rx="3" ry="2.84922" fill="#161B24"/>
<ellipse cx="40" cy="356.045" rx="3" ry="2.84922" fill="#161B24"/>
<ellipse cx="62" cy="356.045" rx="3" ry="2.84922" fill="#161B24"/>
<ellipse cx="84" cy="356.045" rx="3" ry="2.84922" fill="#161B24"/>
<ellipse cx="106" cy="356.045" rx="3" ry="2.84922" fill="#161B24"/>
<ellipse cx="128" cy="356.045" rx="3" ry="2.84922" fill="#161B24"/>
<ellipse cx="40" cy="340.849" rx="3" ry="2.84922" fill="#161B24"/>
<ellipse cx="62" cy="340.849" rx="3" ry="2.84922" fill="#161B24"/>
<ellipse cx="84" cy="340.849" rx="3" ry="2.84922" fill="#161B24"/>
<ellipse cx="106" cy="340.849" rx="3" ry="2.84922" fill="#161B24"/>
<ellipse cx="128" cy="340.849" rx="3" ry="2.84922" fill="#161B24"/>
</g>
</svg>
