<svg width="652" height="186" viewBox="0 0 652 186" fill="none" xmlns="http://www.w3.org/2000/svg">
<path d="M67.023 117.983V67.8894L46.332 105.905H39.798L19.008 67.8894V117.983H7.92V47.6934H19.8L43.065 90.6594L66.33 47.6934H78.21V117.983H67.023ZM144.057 47.6934H154.551L181.875 117.983H170.193L162.768 98.8764H135.642L128.316 117.983H116.535L144.057 47.6934ZM160.59 90.6594L149.304 59.8704L137.622 90.6594H160.59ZM224.722 47.6934L244.126 75.3144L263.53 47.6934H275.806L250.462 83.3334L275.014 117.983H262.738L244.126 91.3524L225.514 117.983H213.139L237.691 83.3334L212.347 47.6934H224.722ZM426.652 117.983V67.8894L405.961 105.905H399.427L378.637 67.8894V117.983H367.549V47.6934H379.429L402.694 90.6594L425.959 47.6934H437.839V117.983H426.652ZM512.695 118.478C507.085 118.478 502.333 117.521 498.439 115.607C494.611 113.693 491.509 111.086 489.133 107.786C486.823 104.486 485.107 100.724 483.985 96.5004C482.929 92.2764 482.401 87.8874 482.401 83.3334V47.6934H493.489V83.3334C493.489 86.5674 493.819 89.7024 494.479 92.7384C495.139 95.7084 496.195 98.3814 497.647 100.757C499.099 103.133 501.046 105.014 503.488 106.4C505.996 107.786 509.065 108.479 512.695 108.479C516.391 108.479 519.46 107.786 521.902 106.4C524.41 104.948 526.357 103.034 527.743 100.658C529.195 98.2164 530.251 95.5104 530.911 92.5404C531.571 89.5704 531.901 86.5014 531.901 83.3334V47.6934H543.088V83.3334C543.088 88.1514 542.494 92.7054 541.306 96.9954C540.184 101.219 538.402 104.948 535.96 108.182C533.584 111.35 530.482 113.858 526.654 115.706C522.826 117.554 518.173 118.478 512.695 118.478ZM629.114 64.2264C628.454 63.5004 627.497 62.7414 626.243 61.9494C624.989 61.0914 623.504 60.2994 621.788 59.5734C620.072 58.8474 618.224 58.2534 616.244 57.7914C614.264 57.3294 612.218 57.0984 610.106 57.0984C605.486 57.0984 602.054 57.9564 599.81 59.6724C597.566 61.3884 596.444 63.7644 596.444 66.8004C596.444 69.0444 597.071 70.8264 598.325 72.1464C599.579 73.4004 601.493 74.4564 604.067 75.3144C606.641 76.1724 609.875 77.0964 613.769 78.0864C618.521 79.2084 622.646 80.5614 626.144 82.1454C629.642 83.6634 632.315 85.7094 634.163 88.2834C636.011 90.8574 636.935 94.2564 636.935 98.4804C636.935 102.044 636.275 105.113 634.955 107.687C633.635 110.261 631.787 112.373 629.411 114.023C627.035 115.607 624.296 116.795 621.194 117.587C618.092 118.313 614.759 118.676 611.195 118.676C607.697 118.676 604.199 118.313 600.701 117.587C597.269 116.861 593.969 115.805 590.801 114.419C587.699 112.967 584.828 111.218 582.188 109.172L587.237 99.6684C588.095 100.526 589.316 101.483 590.9 102.539C592.55 103.529 594.431 104.486 596.543 105.41C598.721 106.334 601.064 107.126 603.572 107.786C606.146 108.38 608.753 108.677 611.393 108.677C615.815 108.677 619.181 107.918 621.491 106.4C623.867 104.816 625.055 102.572 625.055 99.6684C625.055 97.2924 624.296 95.4114 622.778 94.0254C621.26 92.5734 619.049 91.3524 616.145 90.3624C613.241 89.3724 609.776 88.3824 605.75 87.3924C601.13 86.1384 597.269 84.7854 594.167 83.3334C591.065 81.8154 588.722 79.9014 587.138 77.5914C585.62 75.2154 584.861 72.2124 584.861 68.5824C584.861 63.9624 585.983 60.0684 588.227 56.9004C590.471 53.6664 593.507 51.2574 597.335 49.6734C601.229 48.0234 605.585 47.1984 610.403 47.1984C613.571 47.1984 616.574 47.5614 619.412 48.2874C622.25 48.9474 624.89 49.8714 627.332 51.0594C629.84 52.2474 632.117 53.6004 634.163 55.1184L629.114 64.2264Z" fill="white"/>
<path d="M320.643 37.4548L303.737 37.4548C303.181 37.4516 302.631 37.601 302.117 37.8942C301.603 38.1875 301.136 38.6188 300.743 39.1634C300.35 39.7079 300.039 40.3549 299.827 41.067C299.616 41.7791 299.508 42.5422 299.51 43.3123C299.514 44.8534 299.957 46.3302 300.743 47.4199C301.53 48.5097 302.595 49.1239 303.707 49.1285L316.328 49.1285L316.328 115.954L303.707 115.954C302.595 115.958 301.53 116.572 300.743 117.662C299.957 118.752 299.514 120.229 299.51 121.77C299.508 122.54 299.616 123.303 299.827 124.015C300.039 124.727 300.35 125.374 300.743 125.919C301.136 126.463 301.603 126.895 302.117 127.188C302.631 127.481 303.181 127.63 303.737 127.627L320.465 127.627L337.193 127.627C337.75 127.635 338.302 127.489 338.818 127.199C339.334 126.909 339.804 126.48 340.199 125.936C340.794 125.121 341.2 124.08 341.366 122.944C341.531 121.809 341.449 120.63 341.13 119.559C340.811 118.488 340.269 117.573 339.573 116.931C338.877 116.289 338.059 115.949 337.222 115.954L324.781 115.954L324.781 49.1285L337.401 49.1285C337.954 49.1258 338.501 48.9722 339.012 48.6763C339.522 48.3805 339.985 47.9483 340.375 47.4044C340.765 46.8604 341.073 46.2155 341.283 45.5063C341.493 44.7971 341.6 44.0375 341.598 43.271C341.596 42.5045 341.485 41.7461 341.272 41.0389C341.058 40.3318 340.746 39.6899 340.354 39.1498C339.961 38.6097 339.496 38.182 338.984 37.8912C338.472 37.6004 337.924 37.4521 337.371 37.4548L320.643 37.4548ZM312.131 139.26C311.01 139.26 309.935 139.877 309.142 140.975C308.349 142.074 307.904 143.564 307.904 145.117C307.904 146.671 308.349 148.161 309.142 149.259C309.935 150.358 311.01 150.975 312.131 150.975L328.978 150.975C329.532 150.972 330.08 150.817 330.59 150.52C331.101 150.222 331.565 149.788 331.954 149.242C332.348 148.703 332.661 148.06 332.876 147.352C333.09 146.645 333.202 145.885 333.204 145.117C333.206 144.347 333.099 143.584 332.887 142.872C332.676 142.16 332.364 141.513 331.971 140.968C331.578 140.424 331.112 139.992 330.598 139.699C330.084 139.406 329.533 139.257 328.978 139.26L312.131 139.26ZM328.978 14.1073L312.131 14.1073C311.01 14.1073 309.935 14.7244 309.142 15.8229C308.349 16.9214 307.904 18.4113 307.904 19.9648C307.904 21.5183 308.349 23.0082 309.142 24.1067C309.935 25.2051 311.01 25.8223 312.131 25.8223L328.978 25.8223C329.533 25.8254 330.084 25.6761 330.598 25.3828C331.112 25.0896 331.578 24.6582 331.971 24.1137C332.364 23.5692 332.676 22.9222 332.887 22.2101C333.099 21.498 333.206 20.7349 333.204 19.9648C333.206 19.1947 333.099 18.4316 332.887 17.7195C332.676 17.0074 332.364 16.3604 331.971 15.8159C331.578 15.2713 331.112 14.84 330.598 14.5467C330.084 14.2535 329.533 14.1041 328.978 14.1073Z" fill="#9C001C"/>
</svg>
