<svg width="55" height="14" viewBox="0 0 55 14" fill="none" xmlns="http://www.w3.org/2000/svg">
<path d="M5.416 10V5.952L3.744 9.024H3.216L1.536 5.952V10H0.64V4.32H1.6L3.48 7.792L5.36 4.32H6.32V10H5.416ZM11.6409 4.32H12.4889L14.6969 10H13.7529L13.1529 8.456H10.9609L10.3689 10H9.41694L11.6409 4.32ZM12.9769 7.792L12.0649 5.304L11.1209 7.792H12.9769ZM18.1594 4.32L19.7274 6.552L21.2954 4.32H22.2874L20.2394 7.2L22.2234 10H21.2314L19.7274 7.848L18.2234 10H17.2234L19.2074 7.2L17.1594 4.32H18.1594ZM36.8067 10V5.952L35.1347 9.024H34.6067L32.9267 5.952V10H32.0307V4.32H32.9907L34.8707 7.792L36.7507 4.32H37.7107V10H36.8067ZM43.7596 10.04C43.3063 10.04 42.9223 9.96267 42.6076 9.808C42.2983 9.65333 42.0476 9.44267 41.8556 9.176C41.669 8.90933 41.5303 8.60533 41.4396 8.264C41.3543 7.92267 41.3116 7.568 41.3116 7.2V4.32H42.2076V7.2C42.2076 7.46133 42.2343 7.71467 42.2876 7.96C42.341 8.2 42.4263 8.416 42.5436 8.608C42.661 8.8 42.8183 8.952 43.0156 9.064C43.2183 9.176 43.4663 9.232 43.7596 9.232C44.0583 9.232 44.3063 9.176 44.5036 9.064C44.7063 8.94667 44.8636 8.792 44.9756 8.6C45.093 8.40267 45.1783 8.184 45.2316 7.944C45.285 7.704 45.3116 7.456 45.3116 7.2V4.32H46.2156V7.2C46.2156 7.58933 46.1676 7.95733 46.0716 8.304C45.981 8.64533 45.837 8.94667 45.6396 9.208C45.4476 9.464 45.197 9.66667 44.8876 9.816C44.5783 9.96533 44.2023 10.04 43.7596 10.04ZM53.1673 5.656C53.1139 5.59733 53.0366 5.536 52.9353 5.472C52.8339 5.40267 52.7139 5.33867 52.5753 5.28C52.4366 5.22133 52.2873 5.17333 52.1273 5.136C51.9673 5.09867 51.8019 5.08 51.6313 5.08C51.2579 5.08 50.9806 5.14933 50.7993 5.288C50.6179 5.42667 50.5273 5.61867 50.5273 5.864C50.5273 6.04533 50.5779 6.18933 50.6793 6.296C50.7806 6.39733 50.9353 6.48267 51.1433 6.552C51.3513 6.62133 51.6126 6.696 51.9273 6.776C52.3113 6.86667 52.6446 6.976 52.9273 7.104C53.2099 7.22667 53.4259 7.392 53.5753 7.6C53.7246 7.808 53.7993 8.08267 53.7993 8.424C53.7993 8.712 53.7459 8.96 53.6393 9.168C53.5326 9.376 53.3833 9.54667 53.1913 9.68C52.9993 9.808 52.7779 9.904 52.5273 9.968C52.2766 10.0267 52.0073 10.056 51.7193 10.056C51.4366 10.056 51.1539 10.0267 50.8713 9.968C50.5939 9.90933 50.3273 9.824 50.0713 9.712C49.8206 9.59467 49.5886 9.45333 49.3753 9.288L49.7833 8.52C49.8526 8.58933 49.9513 8.66667 50.0793 8.752C50.2126 8.832 50.3646 8.90933 50.5353 8.984C50.7113 9.05867 50.9006 9.12267 51.1033 9.176C51.3113 9.224 51.5219 9.248 51.7353 9.248C52.0926 9.248 52.3646 9.18667 52.5513 9.064C52.7433 8.936 52.8393 8.75467 52.8393 8.52C52.8393 8.328 52.7779 8.176 52.6553 8.064C52.5326 7.94667 52.3539 7.848 52.1193 7.768C51.8846 7.688 51.6046 7.608 51.2793 7.528C50.9059 7.42667 50.5939 7.31733 50.3433 7.2C50.0926 7.07733 49.9033 6.92267 49.7753 6.736C49.6526 6.544 49.5913 6.30133 49.5913 6.008C49.5913 5.63467 49.6819 5.32 49.8633 5.064C50.0446 4.80267 50.2899 4.608 50.5993 4.48C50.9139 4.34667 51.2659 4.28 51.6553 4.28C51.9113 4.28 52.1539 4.30933 52.3833 4.368C52.6126 4.42133 52.8259 4.496 53.0233 4.592C53.2259 4.688 53.4099 4.79733 53.5753 4.92L53.1673 5.656Z" fill="#202020"/>
<g clip-path="url(#clip0_481_189)">
<path d="M27.1748 4.08653L25.4491 4.0863C25.3924 4.08607 25.3362 4.09642 25.2838 4.11674C25.2313 4.13706 25.1837 4.16695 25.1436 4.2047C25.1035 4.24244 25.0717 4.28728 25.0501 4.33664C25.0285 4.386 25.0175 4.4389 25.0178 4.49228C25.0181 4.59911 25.0634 4.70148 25.1437 4.77704C25.2239 4.85259 25.3327 4.89518 25.4462 4.89552L26.7344 4.89569L26.7351 9.52796L25.4469 9.52779C25.3334 9.52809 25.2247 9.57065 25.1444 9.64619C25.0642 9.72172 25.0189 9.82408 25.0186 9.93091C25.0184 9.98429 25.0294 10.0372 25.051 10.0866C25.0726 10.1359 25.1044 10.1808 25.1445 10.2185C25.1846 10.2563 25.2323 10.2862 25.2847 10.3065C25.3372 10.3269 25.3934 10.3372 25.4501 10.337L27.1575 10.3372L28.8649 10.3375C28.9218 10.338 28.9782 10.3279 29.0308 10.3078C29.0835 10.2877 29.1314 10.2579 29.1718 10.2203C29.2325 10.1638 29.2739 10.0916 29.2908 10.0129C29.3077 9.93418 29.2994 9.85249 29.2668 9.77825C29.2342 9.70401 29.1788 9.64059 29.1078 9.59607C29.0367 9.55154 28.9532 9.52793 28.8679 9.52825L27.5979 9.52808L27.5972 4.89581L28.8854 4.89598C28.9418 4.8958 28.9977 4.88516 29.0498 4.86466C29.1018 4.84416 29.1491 4.81421 29.1889 4.77651C29.2287 4.73881 29.2602 4.6941 29.2816 4.64495C29.303 4.59579 29.3139 4.54314 29.3137 4.49C29.3135 4.43687 29.3022 4.38429 29.2804 4.33527C29.2586 4.28625 29.2267 4.24175 29.1867 4.2043C29.1466 4.16686 29.0991 4.13721 29.0468 4.11704C28.9946 4.09687 28.9387 4.08659 28.8822 4.08677L27.1748 4.08653ZM26.307 11.1435C26.1925 11.1435 26.0828 11.1862 26.0019 11.2624C25.921 11.3385 25.8756 11.4418 25.8756 11.5495C25.8756 11.6571 25.9211 11.7604 26.002 11.8366C26.0829 11.9127 26.1927 11.9555 26.3071 11.9556L28.0267 11.9558C28.0832 11.9556 28.1392 11.9449 28.1913 11.9243C28.2434 11.9037 28.2907 11.8736 28.3305 11.8357C28.3707 11.7983 28.4026 11.7538 28.4245 11.7047C28.4464 11.6557 28.4578 11.603 28.458 11.5498C28.4582 11.4964 28.4472 11.4435 28.4256 11.3942C28.404 11.3448 28.3722 11.2999 28.3321 11.2622C28.292 11.2244 28.2444 11.1945 28.1919 11.1742C28.1395 11.1539 28.0833 11.1435 28.0265 11.1437L26.307 11.1435ZM28.0252 2.46822L26.3056 2.46798C26.1912 2.46797 26.0815 2.51073 26.0006 2.58687C25.9197 2.663 25.8743 2.76627 25.8743 2.87396C25.8743 2.98165 25.9198 3.08493 26.0007 3.16109C26.0816 3.23725 26.1913 3.28004 26.3058 3.28006L28.0253 3.28029C28.0821 3.28052 28.1383 3.27017 28.1907 3.24985C28.2431 3.22953 28.2908 3.19964 28.3309 3.1619C28.371 3.12415 28.4028 3.07931 28.4243 3.02995C28.4459 2.98059 28.4569 2.9277 28.4567 2.87431C28.4569 2.82093 28.4459 2.76803 28.4243 2.71866C28.4027 2.6693 28.3709 2.62445 28.3308 2.58669C28.2907 2.54894 28.243 2.51903 28.1906 2.4987C28.1381 2.47836 28.0819 2.468 28.0252 2.46822Z" fill="#9C001C"/>
</g>
<defs>
<clipPath id="clip0_481_189">
<rect width="9.59128" height="9.59128" fill="white" transform="matrix(0.728199 -0.685366 0.728199 0.685366 19.8594 7.42627)"/>
</clipPath>
</defs>
</svg>
