<svg width="60" height="50" viewBox="0 0 60 50" fill="none" xmlns="http://www.w3.org/2000/svg">
<path d="M58.0126 35.2039C57.9441 34.5797 57.8785 33.9914 57.9263 33.5469C58.3491 29.6195 56.9757 26.0789 53.9551 23.3102C50.5285 20.1688 45.1266 18.293 39.5063 18.293C31.6801 18.293 25.1204 21.7102 21.9582 27.4344C21.9507 27.4492 21.9413 27.4641 21.9348 27.4789C21.2082 25.25 20.4751 23.7031 19.8882 22.4633C18.8963 20.3664 18.3638 19.2422 18.7904 16.7766C19.5645 16.7064 20.2905 16.429 20.8594 15.9859C20.9579 15.9914 21.0601 15.9953 21.1632 15.9953C22.2273 15.9953 23.1498 15.6594 23.8163 15.0609L23.8988 15.0617C25.2235 15.0617 26.3513 14.5844 27.1023 13.7422C28.9341 13.6141 30.1998 12.6937 30.4501 11.2758C30.7876 9.37266 29.9888 4.04609 28.2629 2.36953C27.5785 1.70312 26.8229 1.5625 26.311 1.5625C23.3907 1.5625 18.8232 2.12422 14.9457 2.95938C7.87882 4.48125 6.77444 6.01797 6.59913 7.1875C5.88194 12.0133 4.81882 16.318 3.87944 20.1164C2.54819 25.4977 1.49726 29.7484 2.00538 33.0906C2.20319 34.3945 2.59788 35.5133 2.97851 36.5938C3.45476 37.9422 3.94507 39.3367 4.11101 41.2438C4.33882 43.8945 7.77382 45.4148 13.5357 45.4148C15.7941 45.4148 18.0976 45.1695 19.9876 44.7328C22.3051 45.6578 29.9523 48.4375 38.1198 48.4375C40.9285 48.4375 43.5451 48.1031 45.9001 47.4438C57.9498 44.0641 58.4907 39.5438 58.0126 35.2039ZM3.86632 32.893C3.05444 27.5547 6.74163 18.9492 8.46101 7.38203C8.75257 5.425 19.4419 3.37656 25.3219 3.15547C25.0829 3.31563 24.9113 3.52578 24.8888 3.74922C25.5938 3.48281 26.6466 3.39688 27.1632 4.275C27.1904 4.12813 27.2016 3.99766 27.2016 3.87578C27.4716 4.31641 27.7182 4.91719 27.9263 5.60156C28.1879 6.58594 28.3341 7.59531 28.3369 8.60859C28.3388 9.3125 28.5226 11.8219 27.1323 11.4953C26.2754 11.2937 26.2538 10.6352 26.0091 9.95703C25.6323 8.89687 24.9685 7.675 25.0491 6.54844C24.7219 7.65391 25.111 8.98047 25.2554 10.0984C25.3379 10.7492 25.8779 12.5078 24.9216 12.7477C24.3929 12.8828 23.7798 12.5727 23.3419 12.3453C23.1751 12.2578 23.0504 11.618 22.9894 11.4383C22.6126 10.3398 21.9376 9.07656 22.0238 7.92266C21.6938 8.96328 22.0154 10.2172 22.1204 11.2836C22.1851 11.9445 22.5854 13.3773 21.691 13.7102C20.6785 14.1516 20.5229 13.0812 20.3354 12.5203C19.9876 11.4789 19.4223 10.3398 19.4373 9.24766C19.0838 10.5781 19.4991 12.1359 19.5676 13.4984C19.6041 14.175 17.9026 14.7859 17.2679 14.3609C16.2732 13.6945 16.1054 12.1344 15.9929 11.1258C16.291 11.4648 16.7185 11.9031 17.2613 11.8586C16.8001 11.4203 16.6041 10.6687 16.2957 10.1359C16.0126 9.69844 15.4379 8.65703 14.7619 8.63984C14.866 8.82656 15.436 10.1133 15.3479 10.2492C15.0732 10.675 14.806 11.1078 14.5004 11.5156C14.2407 11.8586 13.4869 12.9516 12.8785 12.6211C12.2213 12.2664 11.8088 10.6781 11.8088 10.6781C11.8088 10.6781 11.8332 12.6586 12.6826 13.1172C13.4869 13.5531 14.4038 12.8656 14.9363 12.375C15.0423 13.3164 15.3479 14.4203 16.0313 15.1484C14.0232 22.5695 17.7198 22.4953 20.2116 32.4156C20.2116 32.4156 21.8541 30.3977 23.2904 27.7984C26.4244 22.125 32.9616 19.5969 39.2635 19.5969C45.5129 19.5969 52.2048 22.2594 54.6366 26.8625C55.4401 28.3828 55.6398 30.2 55.4223 32.2016C55.0669 35.4617 58.9276 40.7656 44.5266 44.7508C33.0994 47.9125 19.0444 41.85 19.0444 41.85C15.1894 42.9 6.17444 43.3586 5.98413 41.1336C5.67007 37.4891 4.28163 35.6336 3.86632 32.893Z" fill="white"/>
<path d="M32.1047 41.8516C34.6143 42.6188 37.3415 42.8273 39.9722 42.5664C42.6047 42.3008 45.1809 41.5844 47.4253 40.3766C48.539 39.7688 49.575 39.0375 50.4084 38.1602C51.2231 37.2797 51.8831 36.2625 52.0359 35.1836C50.4159 36.8352 48.3553 37.7445 46.2318 38.4672C44.0972 39.1703 41.8518 39.6086 39.5887 39.8344C37.3237 40.0523 35.0372 40.0547 32.7722 39.7617C30.4091 39.4552 28.1311 38.7979 26.0465 37.8211C27.3253 39.6977 29.6128 41.0859 32.1047 41.8516ZM23.9681 5.35157C24.3656 3.20391 21.7818 3.91094 21.6918 4.82657C22.3968 4.55938 23.4515 4.47422 23.9681 5.35157ZM21.4134 6.53907C21.8118 4.39063 19.229 5.0961 19.139 6.01485C19.844 5.74532 20.8978 5.66094 21.4134 6.53907ZM18.4631 7.77891C18.8615 5.63125 16.2787 6.3375 16.1887 7.25469C16.8947 6.98516 17.9465 6.90157 18.4631 7.77891Z" fill="white"/>
</svg>
