<svg width="117" height="207" viewBox="0 0 117 207" fill="none" xmlns="http://www.w3.org/2000/svg">
<g opacity="0.6">
<circle cx="45.5" cy="147.5" r="1.5" fill="#161B24"/>
<circle cx="45.5" cy="158.5" r="1.5" fill="#161B24"/>
<circle cx="45.5" cy="169.5" r="1.5" fill="#161B24"/>
<circle cx="45.5" cy="180.5" r="1.5" fill="#161B24"/>
<circle cx="45.5" cy="191.5" r="1.5" fill="#161B24"/>
<circle cx="45.5" cy="202.5" r="1.5" fill="#161B24"/>
<circle cx="58.5" cy="147.5" r="1.5" fill="#161B24"/>
<circle cx="58.5" cy="158.5" r="1.5" fill="#161B24"/>
<circle cx="58.5" cy="169.5" r="1.5" fill="#161B24"/>
<circle cx="58.5" cy="180.5" r="1.5" fill="#161B24"/>
<circle cx="58.5" cy="191.5" r="1.5" fill="#161B24"/>
<circle cx="58.5" cy="202.5" r="1.5" fill="#161B24"/>
<circle cx="71.5" cy="147.5" r="1.5" fill="#161B24"/>
<circle cx="71.5" cy="158.5" r="1.5" fill="#161B24"/>
<circle cx="71.5" cy="169.5" r="1.5" fill="#161B24"/>
<circle cx="71.5" cy="180.5" r="1.5" fill="#161B24"/>
<circle cx="71.5" cy="191.5" r="1.5" fill="#161B24"/>
<circle cx="71.5" cy="202.5" r="1.5" fill="#161B24"/>
<circle cx="84.5" cy="147.5" r="1.5" fill="#161B24"/>
<circle cx="84.5" cy="158.5" r="1.5" fill="#161B24"/>
<circle cx="84.5" cy="169.5" r="1.5" fill="#161B24"/>
<circle cx="84.5" cy="180.5" r="1.5" fill="#161B24"/>
<circle cx="84.5" cy="191.5" r="1.5" fill="#161B24"/>
<circle cx="84.5" cy="202.5" r="1.5" fill="#161B24"/>
<circle cx="97.5" cy="147.5" r="1.5" fill="#161B24"/>
<circle cx="97.5" cy="158.5" r="1.5" fill="#161B24"/>
<circle cx="97.5" cy="169.5" r="1.5" fill="#161B24"/>
<circle cx="97.5" cy="180.5" r="1.5" fill="#161B24"/>
<circle cx="97.5" cy="191.5" r="1.5" fill="#161B24"/>
<circle cx="97.5" cy="202.5" r="1.5" fill="#161B24"/>
<circle cx="110.5" cy="191.5" r="1.5" fill="#161B24"/>
<circle cx="110.5" cy="202.5" r="1.5" fill="#161B24"/>
<circle cx="110.5" cy="147.5" r="1.5" fill="#161B24"/>
<circle cx="110.5" cy="158.5" r="1.5" fill="#161B24"/>
<circle cx="110.5" cy="169.5" r="1.5" fill="#161B24"/>
<circle cx="110.5" cy="180.5" r="1.5" fill="#161B24"/>
</g>
<g opacity="0.6">
<line y1="-0.5" x2="35.0066" y2="-0.5" transform="matrix(0.711837 -0.702345 0.711837 0.702345 76.4897 98.624)" stroke="#5A0B19"/>
<line y1="-0.5" x2="59.7171" y2="-0.5" transform="matrix(0.711837 -0.702345 0.711837 0.702345 62.5645 101.516)" stroke="#5A0B19"/>
<line y1="-0.5" x2="75.1611" y2="-0.5" transform="matrix(0.711837 -0.702345 0.711837 0.702345 50.8379 102.239)" stroke="#5A0B19"/>
<line y1="-0.5" x2="88.546" y2="-0.5" transform="matrix(0.711837 -0.702345 0.711837 0.702345 39.8442 100.07)" stroke="#5A0B19"/>
<line y1="-0.5" x2="97.8125" y2="-0.5" transform="matrix(0.711837 -0.702345 0.711837 0.702345 28.8506 96.4546)" stroke="#5A0B19"/>
<line y1="-0.5" x2="101.931" y2="-0.5" transform="matrix(0.711837 -0.702345 0.711837 0.702345 19.3228 89.9468)" stroke="#5A0B19"/>
<line y1="-0.5" x2="101.931" y2="-0.5" transform="matrix(0.711837 -0.702345 0.711837 0.702345 11.2607 82.7148)" stroke="#5A0B19"/>
<line y1="-0.5" x2="95.7532" y2="-0.5" transform="matrix(0.711837 -0.702345 0.711837 0.702345 4.66455 71.1445)" stroke="#5A0B19"/>
<line y1="-0.5" x2="83.398" y2="-0.5" transform="matrix(0.711837 -0.702345 0.711837 0.702345 1 59.5742)" stroke="#5A0B19"/>
<line y1="-0.5" x2="62.8059" y2="-0.5" transform="matrix(0.711837 -0.702345 0.711837 0.702345 1 45.1118)" stroke="#5A0B19"/>
<line y1="-0.5" x2="33.977" y2="-0.5" transform="matrix(0.711837 -0.702345 0.711837 0.702345 6.13037 29.9258)" stroke="#5A0B19"/>
</g>
</svg>
