<svg width="143" height="141" viewBox="0 0 143 141" fill="none" xmlns="http://www.w3.org/2000/svg">
<g opacity="0.6">
<line y1="-0.5" x2="48.0165" y2="-0.5" transform="matrix(0.70809 -0.706123 0.70809 0.706123 104 135.625)" stroke="white"/>
<line y1="-0.5" x2="81.9105" y2="-0.5" transform="matrix(0.70809 -0.706123 0.70809 0.706123 85 139.614)" stroke="white"/>
<line y1="-0.5" x2="103.094" y2="-0.5" transform="matrix(0.70809 -0.706123 0.70809 0.706123 69 140.611)" stroke="white"/>
<line y1="-0.5" x2="121.454" y2="-0.5" transform="matrix(0.70809 -0.706123 0.70809 0.706123 54 137.619)" stroke="white"/>
<line y1="-0.5" x2="134.164" y2="-0.5" transform="matrix(0.70809 -0.706123 0.70809 0.706123 39 132.633)" stroke="white"/>
<line y1="-0.5" x2="139.813" y2="-0.5" transform="matrix(0.70809 -0.706123 0.70809 0.706123 26 123.658)" stroke="white"/>
<line y1="-0.5" x2="139.813" y2="-0.5" transform="matrix(0.70809 -0.706123 0.70809 0.706123 15 113.686)" stroke="white"/>
<line y1="-0.5" x2="131.339" y2="-0.5" transform="matrix(0.70809 -0.706123 0.70809 0.706123 6 97.7306)" stroke="white"/>
<line y1="-0.5" x2="114.392" y2="-0.5" transform="matrix(0.70809 -0.706123 0.70809 0.706123 1 81.775)" stroke="white"/>
<line y1="-0.5" x2="86.1473" y2="-0.5" transform="matrix(0.70809 -0.706123 0.70809 0.706123 1 61.8306)" stroke="white"/>
<line y1="-0.5" x2="46.6043" y2="-0.5" transform="matrix(0.70809 -0.706123 0.70809 0.706123 8 40.8889)" stroke="white"/>
</g>
</svg>
