<svg width="95" height="95" viewBox="0 0 95 95" fill="none" xmlns="http://www.w3.org/2000/svg">
<rect y="5.89148" width="95" height="82.4806" rx="7" fill="#9C001C"/>
<path d="M49.7695 24.9706L39.0634 24.9706C38.7115 24.9691 38.3628 25.0408 38.0374 25.1815C37.712 25.3222 37.4164 25.5291 37.1676 25.7904C36.9187 26.0517 36.7216 26.3621 36.5876 26.7037C36.4537 27.0454 36.3854 27.4115 36.3869 27.781C36.3889 28.5205 36.6696 29.229 37.1676 29.7519C37.6655 30.2747 38.3403 30.5695 39.0445 30.5717L47.0364 30.5717V62.6342L39.0445 62.6342C38.3403 62.6364 37.6655 62.9311 37.1676 63.4539C36.6696 63.9768 36.3889 64.6853 36.3869 65.4248C36.3854 65.7943 36.4537 66.1604 36.5876 66.5021C36.7216 66.8437 36.9187 67.1541 37.1676 67.4154C37.4164 67.6767 37.712 67.8836 38.0374 68.0243C38.3628 68.165 38.7115 68.2367 39.0634 68.2352H49.6564L60.2494 68.2352C60.602 68.2389 60.9519 68.1691 61.2787 68.0298C61.6055 67.8905 61.9027 67.6845 62.1531 67.4237C62.5296 67.0329 62.7868 66.5332 62.8918 65.9883C62.9969 65.4434 62.945 64.878 62.7428 64.3642C62.5406 63.8503 62.1972 63.4114 61.7565 63.1033C61.3158 62.7952 60.7977 62.6319 60.2682 62.6342L52.3894 62.6342V30.5717L60.3813 30.5717C60.7315 30.5704 61.0781 30.4966 61.4012 30.3547C61.7244 30.2128 62.0177 30.0054 62.2645 29.7444C62.5113 29.4834 62.7067 29.174 62.8396 28.8337C62.9724 28.4934 63.0402 28.129 63.039 27.7612C63.0377 27.3935 62.9675 27.0296 62.8323 26.6903C62.6972 26.351 62.4997 26.043 62.2511 25.7839C62.0026 25.5247 61.7079 25.3195 61.3838 25.18C61.0598 25.0405 60.7127 24.9693 60.3625 24.9706L49.7695 24.9706ZM44.3787 73.8164C43.6689 73.8164 42.9881 74.1125 42.4861 74.6396C41.9842 75.1666 41.7022 75.8815 41.7022 76.6269C41.7022 77.3722 41.9842 78.0871 42.4861 78.6141C42.9881 79.1412 43.6689 79.4373 44.3787 79.4373L55.0471 79.4373C55.3979 79.4358 55.745 79.3616 56.0685 79.2189C56.3919 79.0763 56.6854 78.868 56.932 78.606C57.1815 78.3471 57.3798 78.0389 57.5157 77.6993C57.6515 77.3597 57.7222 76.9952 57.7236 76.6269C57.7251 76.2574 57.6568 75.8912 57.5228 75.5496C57.3888 75.2079 57.1917 74.8975 56.9429 74.6362C56.6941 74.3749 56.3985 74.168 56.0731 74.0273C55.7477 73.8866 55.399 73.8149 55.0471 73.8164L44.3787 73.8164ZM55.0471 13.7685L44.3787 13.7685C43.6689 13.7685 42.9881 14.0646 42.4861 14.5917C41.9842 15.1187 41.7022 15.8336 41.7022 16.579C41.7022 17.3243 41.9842 18.0392 42.4861 18.5662C42.9881 19.0933 43.6689 19.3894 44.3787 19.3894L55.0471 19.3894C55.399 19.3909 55.7477 19.3192 56.0731 19.1785C56.3985 19.0378 56.6941 18.8309 56.9429 18.5696C57.1917 18.3083 57.3888 17.9979 57.5228 17.6562C57.6568 17.3146 57.7251 16.9484 57.7236 16.579C57.7251 16.2095 57.6568 15.8433 57.5228 15.5017C57.3888 15.16 57.1917 14.8496 56.9429 14.5883C56.6941 14.327 56.3985 14.1201 56.0731 13.9794C55.7477 13.8387 55.399 13.767 55.0471 13.7685Z" fill="#161B24"/>
<path d="M64.297 69V38.134L51.548 61.558H47.522L34.712 38.134V69H27.88V25.69H35.2L49.535 52.164L63.87 25.69H71.19V69H64.297Z" fill="white"/>
</svg>
