<svg width="52" height="53" viewBox="0 0 52 53" fill="none" xmlns="http://www.w3.org/2000/svg">
<g clip-path="url(#clip0_331_63)">
<path d="M39.5589 19.2592C39.4045 18.7212 39.1017 18.2306 38.681 17.8365C38.2602 17.4423 37.7361 17.1585 37.1612 17.0134C35.0451 16.481 26.5625 16.481 26.5625 16.481C26.5625 16.481 18.0799 16.481 15.9638 17.0105C15.3886 17.1552 14.8643 17.4389 14.4435 17.8331C14.0226 18.2273 13.72 18.7181 13.5661 19.2563C13 21.2388 13 25.3735 13 25.3735C13 25.3735 13 29.5083 13.5661 31.4879C13.8779 32.5811 14.7982 33.442 15.9638 33.7337C18.0799 34.2661 26.5625 34.2661 26.5625 34.2661C26.5625 34.2661 35.0451 34.2661 37.1612 33.7337C38.3298 33.442 39.2471 32.5811 39.5589 31.4879C40.125 29.5083 40.125 25.3735 40.125 25.3735C40.125 25.3735 40.125 21.2388 39.5589 19.2592ZM23.8682 29.1685V21.5786L30.8916 25.3452L23.8682 29.1685Z" fill="#202020"/>
<path d="M51.5 24.981C51.5 38.2082 40.1117 48.981 26 48.981C11.8883 48.981 0.5 38.2082 0.5 24.981C0.5 11.7537 11.8883 0.980957 26 0.980957C40.1117 0.980957 51.5 11.7537 51.5 24.981Z" stroke="#202020"/>
</g>
<defs>
<clipPath id="clip0_331_63">
<rect width="52" height="52.1875" fill="white" transform="translate(0 0.480957)"/>
</clipPath>
</defs>
</svg>
