<svg width="52" height="53" viewBox="0 0 52 53" fill="none" xmlns="http://www.w3.org/2000/svg">
<g clip-path="url(#clip0_331_61)">
<path d="M26.6093 20.5276C24.1722 20.5276 22.1833 22.3995 22.1833 24.6932C22.1833 26.987 24.1722 28.8588 26.6093 28.8588C29.0464 28.8588 31.0353 26.987 31.0353 24.6932C31.0353 22.3995 29.0464 20.5276 26.6093 20.5276ZM39.8839 24.6932C39.8839 22.9682 39.9005 21.2588 39.7976 19.537C39.6946 17.537 39.2099 15.762 37.656 14.2995C36.0987 12.8338 34.2161 12.3807 32.0911 12.2838C30.2583 12.187 28.4421 12.2026 26.6126 12.2026C24.7798 12.2026 22.9636 12.187 21.1341 12.2838C19.0091 12.3807 17.1232 12.837 15.5692 14.2995C14.012 15.7651 13.5306 17.537 13.4276 19.537C13.3247 21.262 13.3413 22.9713 13.3413 24.6932C13.3413 26.4151 13.3247 28.1276 13.4276 29.8495C13.5306 31.8495 14.0153 33.6245 15.5692 35.087C17.1265 36.5526 19.0091 37.0057 21.1341 37.1026C22.9669 37.1995 24.7831 37.1838 26.6126 37.1838C28.4454 37.1838 30.2616 37.1995 32.0911 37.1026C34.2161 37.0057 36.1021 36.5495 37.656 35.087C39.2132 33.6213 39.6946 31.8495 39.7976 29.8495C39.9038 28.1276 39.8839 26.4182 39.8839 24.6932ZM26.6093 31.1026C22.8407 31.1026 19.7993 28.2401 19.7993 24.6932C19.7993 21.1463 22.8407 18.2838 26.6093 18.2838C30.3778 18.2838 33.4192 21.1463 33.4192 24.6932C33.4192 28.2401 30.3778 31.1026 26.6093 31.1026ZM33.6982 19.5182C32.8183 19.5182 32.1077 18.8495 32.1077 18.0213C32.1077 17.1932 32.8183 16.5245 33.6982 16.5245C34.578 16.5245 35.2886 17.1932 35.2886 18.0213C35.2888 18.218 35.2479 18.4127 35.1681 18.5945C35.0882 18.7762 34.9711 18.9413 34.8233 19.0803C34.6756 19.2194 34.5002 19.3296 34.3071 19.4048C34.114 19.4799 33.9071 19.5185 33.6982 19.5182Z" fill="#202020"/>
<path d="M51.5 24.981C51.5 38.2082 40.1117 48.981 26 48.981C11.8883 48.981 0.5 38.2082 0.5 24.981C0.5 11.7537 11.8883 0.980957 26 0.980957C40.1117 0.980957 51.5 11.7537 51.5 24.981Z" stroke="#202020"/>
</g>
<defs>
<clipPath id="clip0_331_61">
<rect width="52" height="52.1875" fill="white" transform="translate(0 0.480957)"/>
</clipPath>
</defs>
</svg>
