<svg width="133" height="38" viewBox="0 0 133 38" fill="none" xmlns="http://www.w3.org/2000/svg">
<path d="M13.54 25.9251V15.8051L9.36 23.4851H8.04L3.84 15.8051V25.9251H1.6V11.7251H4L8.7 20.4051L13.4 11.7251H15.8V25.9251H13.54ZM29.1023 11.7251H31.2223L36.7423 25.9251H34.3823L32.8823 22.0651H27.4023L25.9223 25.9251H23.5423L29.1023 11.7251ZM32.4423 20.4051L30.1623 14.1851L27.8023 20.4051H32.4423ZM45.3984 11.7251L49.3184 17.3051L53.2384 11.7251H55.7184L50.5984 18.9251L55.5584 25.9251H53.0784L49.3184 20.5451L45.5584 25.9251H43.0584L48.0184 18.9251L42.8984 11.7251H45.3984ZM89.4748 25.9251V15.8051L85.2948 23.4851H83.9748L79.7748 15.8051V25.9251H77.5348V11.7251H79.9348L84.6348 20.4051L89.3348 11.7251H91.7348V25.9251H89.4748ZM106.857 26.0251C105.724 26.0251 104.764 25.8318 103.977 25.4451C103.204 25.0584 102.577 24.5318 102.097 23.8651C101.63 23.1984 101.284 22.4384 101.057 21.5851C100.844 20.7318 100.737 19.8451 100.737 18.9251V11.7251H102.977V18.9251C102.977 19.5784 103.044 20.2118 103.177 20.8251C103.31 21.4251 103.524 21.9651 103.817 22.4451C104.11 22.9251 104.504 23.3051 104.997 23.5851C105.504 23.8651 106.124 24.0051 106.857 24.0051C107.604 24.0051 108.224 23.8651 108.717 23.5851C109.224 23.2918 109.617 22.9051 109.897 22.4251C110.19 21.9318 110.404 21.3851 110.537 20.7851C110.67 20.1851 110.737 19.5651 110.737 18.9251V11.7251H112.997V18.9251C112.997 19.8984 112.877 20.8184 112.637 21.6851C112.41 22.5384 112.05 23.2918 111.557 23.9451C111.077 24.5851 110.45 25.0918 109.677 25.4651C108.904 25.8384 107.964 26.0251 106.857 26.0251ZM130.376 15.0651C130.243 14.9184 130.05 14.7651 129.796 14.6051C129.543 14.4318 129.243 14.2718 128.896 14.1251C128.55 13.9784 128.176 13.8584 127.776 13.7651C127.376 13.6718 126.963 13.6251 126.536 13.6251C125.603 13.6251 124.91 13.7984 124.456 14.1451C124.003 14.4918 123.776 14.9718 123.776 15.5851C123.776 16.0384 123.903 16.3984 124.156 16.6651C124.41 16.9184 124.796 17.1318 125.316 17.3051C125.836 17.4784 126.49 17.6651 127.276 17.8651C128.236 18.0918 129.07 18.3651 129.776 18.6851C130.483 18.9918 131.023 19.4051 131.396 19.9251C131.77 20.4451 131.956 21.1318 131.956 21.9851C131.956 22.7051 131.823 23.3251 131.556 23.8451C131.29 24.3651 130.916 24.7918 130.436 25.1251C129.956 25.4451 129.403 25.6851 128.776 25.8451C128.15 25.9918 127.476 26.0651 126.756 26.0651C126.05 26.0651 125.343 25.9918 124.636 25.8451C123.943 25.6984 123.276 25.4851 122.636 25.2051C122.01 24.9118 121.43 24.5584 120.896 24.1451L121.916 22.2251C122.09 22.3984 122.336 22.5918 122.656 22.8051C122.99 23.0051 123.37 23.1984 123.796 23.3851C124.236 23.5718 124.71 23.7318 125.216 23.8651C125.736 23.9851 126.263 24.0451 126.796 24.0451C127.69 24.0451 128.37 23.8918 128.836 23.5851C129.316 23.2651 129.556 22.8118 129.556 22.2251C129.556 21.7451 129.403 21.3651 129.096 21.0851C128.79 20.7918 128.343 20.5451 127.756 20.3451C127.17 20.1451 126.47 19.9451 125.656 19.7451C124.723 19.4918 123.943 19.2184 123.316 18.9251C122.69 18.6184 122.216 18.2318 121.896 17.7651C121.59 17.2851 121.436 16.6784 121.436 15.9451C121.436 15.0118 121.663 14.2251 122.116 13.5851C122.57 12.9318 123.183 12.4451 123.956 12.1251C124.743 11.7918 125.623 11.6251 126.596 11.6251C127.236 11.6251 127.843 11.6984 128.416 11.8451C128.99 11.9784 129.523 12.1651 130.016 12.4051C130.523 12.6451 130.983 12.9184 131.396 13.2251L130.376 15.0651Z" fill="white"/>
<g clip-path="url(#clip0_344_190)">
<path d="M65.9583 10.3471L61.4491 10.3471C61.3009 10.3465 61.154 10.3751 61.017 10.4314C60.8799 10.4877 60.7554 10.5705 60.6506 10.675C60.5458 10.7795 60.4628 10.9037 60.4064 11.0403C60.3499 11.177 60.3212 11.3235 60.3218 11.4713C60.3227 11.767 60.4409 12.0504 60.6506 12.2596C60.8604 12.4687 61.1446 12.5866 61.4412 12.5875L64.8072 12.5875L64.8072 25.4125L61.4412 25.4125C61.1446 25.4134 60.8604 25.5313 60.6506 25.7404C60.4409 25.9496 60.3227 26.233 60.3218 26.5288C60.3212 26.6765 60.3499 26.823 60.4064 26.9597C60.4628 27.0963 60.5458 27.2205 60.6506 27.325C60.7554 27.4295 60.8799 27.5123 61.017 27.5686C61.154 27.6249 61.3009 27.6535 61.4491 27.6529L65.9107 27.6529L70.3722 27.6529C70.5207 27.6544 70.6681 27.6265 70.8057 27.5708C70.9434 27.515 71.0686 27.4326 71.174 27.3283C71.3326 27.172 71.4409 26.9721 71.4852 26.7542C71.5294 26.5362 71.5076 26.31 71.4224 26.1045C71.3372 25.899 71.1926 25.7234 71.007 25.6002C70.8214 25.4769 70.6032 25.4116 70.3802 25.4125H67.0618L67.0618 12.5875L70.4278 12.5875C70.5753 12.587 70.7213 12.5575 70.8574 12.5007C70.9934 12.4439 71.117 12.361 71.2209 12.2566C71.3249 12.1522 71.4072 12.0284 71.4632 11.8923C71.5191 11.7562 71.5477 11.6104 71.5471 11.4633C71.5466 11.3162 71.517 11.1707 71.4601 11.035C71.4032 10.8992 71.32 10.776 71.2153 10.6724C71.1106 10.5687 70.9865 10.4867 70.85 10.4308C70.7135 10.375 70.5674 10.3466 70.4198 10.3471L65.9583 10.3471ZM63.6878 29.8854C63.3888 29.8854 63.1021 30.0039 62.8907 30.2147C62.6793 30.4255 62.5605 30.7114 62.5605 31.0096C62.5605 31.3077 62.6793 31.5937 62.8907 31.8045C63.1021 32.0153 63.3888 32.1338 63.6878 32.1337L68.1811 32.1337C68.3289 32.1331 68.4751 32.1035 68.6113 32.0464C68.7475 31.9894 68.8711 31.906 68.975 31.8013C69.0801 31.6977 69.1636 31.5744 69.2208 31.4386C69.2781 31.3027 69.3078 31.1569 69.3084 31.0096C69.309 30.8618 69.2803 30.7153 69.2239 30.5787C69.1674 30.442 69.0844 30.3178 68.9796 30.2133C68.8748 30.1088 68.7503 30.026 68.6132 29.9698C68.4762 29.9135 68.3293 29.8848 68.1811 29.8854L63.6878 29.8854ZM68.1811 5.86625L63.6878 5.86625C63.3888 5.86625 63.1021 5.98469 62.8907 6.19551C62.6793 6.40634 62.5605 6.69227 62.5605 6.99042C62.5605 7.28857 62.6793 7.5745 62.8907 7.78532C63.1021 7.99615 63.3888 8.11459 63.6878 8.11459L68.1811 8.11459C68.3293 8.11519 68.4762 8.08653 68.6132 8.03025C68.7503 7.97397 68.8748 7.89119 68.9796 7.78668C69.0844 7.68217 69.1674 7.558 69.2239 7.42133C69.2803 7.28467 69.309 7.13822 69.3084 6.99042C69.309 6.84262 69.2803 6.69617 69.2239 6.5595C69.1674 6.42284 69.0844 6.29867 68.9796 6.19416C68.8748 6.08965 68.7503 6.00687 68.6132 5.95059C68.4762 5.89431 68.3293 5.86565 68.1811 5.86625Z" fill="#9C001C"/>
</g>
<defs>
<clipPath id="clip0_344_190">
<rect width="26.9075" height="26.9075" fill="white" transform="matrix(0.70809 -0.706123 0.70809 0.706123 46.8816 19)"/>
</clipPath>
</defs>
</svg>
