<svg width="791" height="173" viewBox="0 0 791 173" fill="none" xmlns="http://www.w3.org/2000/svg">
<path d="M77.855 120V61.8102L53.82 105.97H46.23L22.08 61.8102V120H9.2V38.3502H23L50.025 88.2602L77.05 38.3502H90.85V120H77.855ZM167.338 38.3502H179.528L211.268 120H197.698L189.073 97.8052H157.563L149.053 120H135.368L167.338 38.3502ZM186.543 88.2602L173.433 52.4952L159.863 88.2602H186.543ZM261.041 38.3502L283.581 70.4352L306.121 38.3502H320.381L290.941 79.7502L319.461 120H305.201L283.581 89.0652L261.961 120H247.586L276.106 79.7502L246.666 38.3502H261.041ZM495.606 120V61.8102L471.571 105.97H463.981L439.831 61.8102V120H426.951V38.3502H440.751L467.776 88.2602L494.801 38.3502H508.601V120H495.606ZM595.554 120.575C589.038 120.575 583.518 119.464 578.994 117.24C574.548 115.017 570.944 111.989 568.184 108.155C565.501 104.322 563.508 99.9519 562.204 95.0452C560.978 90.1386 560.364 85.0402 560.364 79.7502V38.3502H573.244V79.7502C573.244 83.5069 573.628 87.1486 574.394 90.6752C575.161 94.1252 576.388 97.2302 578.074 99.9902C579.761 102.75 582.023 104.935 584.859 106.545C587.773 108.155 591.338 108.96 595.554 108.96C599.848 108.96 603.413 108.155 606.249 106.545C609.163 104.859 611.424 102.635 613.034 99.8752C614.721 97.0386 615.948 93.8952 616.714 90.4452C617.481 86.9952 617.864 83.4302 617.864 79.7502V38.3502H630.859V79.7502C630.859 85.3469 630.169 90.6369 628.789 95.6202C627.486 100.527 625.416 104.859 622.579 108.615C619.819 112.295 616.216 115.209 611.769 117.355C607.323 119.502 601.918 120.575 595.554 120.575ZM730.789 57.5552C730.022 56.7119 728.911 55.8302 727.454 54.9102C725.997 53.9136 724.272 52.9936 722.279 52.1502C720.286 51.3069 718.139 50.6169 715.839 50.0802C713.539 49.5436 711.162 49.2752 708.709 49.2752C703.342 49.2752 699.356 50.2719 696.749 52.2652C694.142 54.2586 692.839 57.0186 692.839 60.5452C692.839 63.1519 693.567 65.2219 695.024 66.7552C696.481 68.2119 698.704 69.4386 701.694 70.4352C704.684 71.4319 708.441 72.5052 712.964 73.6552C718.484 74.9586 723.276 76.5302 727.339 78.3702C731.402 80.1336 734.507 82.5102 736.654 85.5002C738.801 88.4902 739.874 92.4386 739.874 97.3452C739.874 101.485 739.107 105.05 737.574 108.04C736.041 111.03 733.894 113.484 731.134 115.4C728.374 117.24 725.192 118.62 721.589 119.54C717.986 120.384 714.114 120.805 709.974 120.805C705.911 120.805 701.847 120.384 697.784 119.54C693.797 118.697 689.964 117.47 686.284 115.86C682.681 114.174 679.346 112.142 676.279 109.765L682.144 98.7252C683.141 99.7219 684.559 100.834 686.399 102.06C688.316 103.21 690.501 104.322 692.954 105.395C695.484 106.469 698.206 107.389 701.119 108.155C704.109 108.845 707.137 109.19 710.204 109.19C715.341 109.19 719.251 108.309 721.934 106.545C724.694 104.705 726.074 102.099 726.074 98.7252C726.074 95.9652 725.192 93.7802 723.429 92.1702C721.666 90.4836 719.097 89.0652 715.724 87.9152C712.351 86.7652 708.326 85.6152 703.649 84.4652C698.282 83.0086 693.797 81.4369 690.194 79.7502C686.591 77.9869 683.869 75.7636 682.029 73.0802C680.266 70.3202 679.384 66.8319 679.384 62.6152C679.384 57.2486 680.687 52.7252 683.294 49.0452C685.901 45.2886 689.427 42.4902 693.874 40.6502C698.397 38.7336 703.457 37.7752 709.054 37.7752C712.734 37.7752 716.222 38.1969 719.519 39.0402C722.816 39.8069 725.882 40.8802 728.719 42.2602C731.632 43.6402 734.277 45.2119 736.654 46.9752L730.789 57.5552Z" fill="white"/>
<path d="M369.51 37.4548L350.374 37.4548C349.745 37.4516 349.122 37.601 348.54 37.8942C347.959 38.1875 347.43 38.6188 346.985 39.1634C346.541 39.7079 346.188 40.3549 345.949 41.067C345.709 41.7791 345.587 42.5422 345.59 43.3123C345.594 44.8534 346.095 46.3302 346.985 47.4199C347.876 48.5097 349.082 49.1239 350.34 49.1285L364.625 49.1285L364.625 115.954L350.34 115.954C349.082 115.958 347.876 116.572 346.985 117.662C346.095 118.752 345.594 120.229 345.59 121.77C345.587 122.54 345.709 123.303 345.949 124.015C346.188 124.727 346.541 125.374 346.985 125.919C347.43 126.463 347.959 126.895 348.54 127.188C349.122 127.481 349.745 127.63 350.374 127.627L369.308 127.627L388.243 127.627C388.873 127.635 389.498 127.489 390.082 127.199C390.667 126.909 391.198 126.48 391.645 125.936C392.319 125.121 392.778 124.08 392.966 122.944C393.154 121.809 393.061 120.63 392.699 119.559C392.338 118.488 391.724 117.573 390.937 116.931C390.149 116.289 389.223 115.949 388.276 115.954L374.194 115.954L374.194 49.1285L388.478 49.1285C389.105 49.1258 389.724 48.9722 390.302 48.6763C390.879 48.3805 391.403 47.9483 391.845 47.4044C392.286 46.8604 392.635 46.2155 392.872 45.5063C393.11 44.7971 393.231 44.0375 393.229 43.271C393.227 42.5045 393.101 41.7461 392.86 41.0389C392.618 40.3318 392.265 39.6899 391.821 39.1498C391.376 38.6097 390.85 38.182 390.27 37.8912C389.691 37.6004 389.071 37.4521 388.445 37.4548L369.51 37.4548ZM359.875 139.26C358.606 139.26 357.389 139.877 356.492 140.975C355.595 142.074 355.091 143.564 355.091 145.117C355.091 146.671 355.595 148.161 356.492 149.259C357.389 150.358 358.606 150.975 359.875 150.975L378.944 150.975C379.571 150.972 380.191 150.817 380.77 150.52C381.348 150.222 381.872 149.788 382.313 149.242C382.759 148.703 383.114 148.06 383.356 147.352C383.599 146.645 383.726 145.885 383.728 145.117C383.731 144.347 383.609 143.584 383.369 142.872C383.13 142.16 382.777 141.513 382.333 140.968C381.888 140.424 381.359 139.992 380.778 139.699C380.196 139.406 379.573 139.257 378.944 139.26L359.875 139.26ZM378.944 14.1073L359.875 14.1073C358.606 14.1073 357.389 14.7244 356.492 15.8229C355.595 16.9214 355.091 18.4113 355.091 19.9648C355.091 21.5183 355.595 23.0082 356.492 24.1067C357.389 25.2051 358.606 25.8223 359.875 25.8223L378.944 25.8223C379.573 25.8254 380.196 25.6761 380.778 25.3828C381.359 25.0896 381.888 24.6582 382.333 24.1137C382.777 23.5691 383.13 22.9222 383.369 22.2101C383.609 21.498 383.731 20.7349 383.728 19.9648C383.731 19.1947 383.609 18.4316 383.369 17.7195C383.13 17.0074 382.777 16.3604 382.333 15.8159C381.888 15.2713 381.359 14.84 380.778 14.5467C380.196 14.2535 379.573 14.1041 378.944 14.1073Z" fill="#9C001C"/>
</svg>
