<svg width="279" height="1735" viewBox="0 0 279 1735" fill="none" xmlns="http://www.w3.org/2000/svg">
<g opacity="0.6">
<line y1="-0.5" x2="37.2554" y2="-0.5" transform="matrix(0.707907 -0.706306 0.707907 0.706306 80.896 1346.48)" stroke="white"/>
<line y1="-0.5" x2="63.5533" y2="-0.5" transform="matrix(0.707907 -0.706306 0.707907 0.706306 66.1582 1349.58)" stroke="white"/>
<line y1="-0.5" x2="79.9896" y2="-0.5" transform="matrix(0.707907 -0.706306 0.707907 0.706306 53.7466 1350.35)" stroke="white"/>
<line y1="-0.5" x2="94.2343" y2="-0.5" transform="matrix(0.707907 -0.706306 0.707907 0.706306 42.1118 1348.03)" stroke="white"/>
<line y1="-0.5" x2="104.096" y2="-0.5" transform="matrix(0.707907 -0.706306 0.707907 0.706306 30.4766 1344.16)" stroke="white"/>
<line y1="-0.5" x2="108.479" y2="-0.5" transform="matrix(0.707907 -0.706306 0.707907 0.706306 20.3926 1337.19)" stroke="white"/>
<line y1="-0.5" x2="108.479" y2="-0.5" transform="matrix(0.707907 -0.706306 0.707907 0.706306 11.8599 1329.45)" stroke="white"/>
<line y1="-0.5" x2="101.905" y2="-0.5" transform="matrix(0.707907 -0.706306 0.707907 0.706306 4.87842 1317.07)" stroke="white"/>
<line y1="-0.5" x2="88.7555" y2="-0.5" transform="matrix(0.707907 -0.706306 0.707907 0.706306 1 1304.69)" stroke="white"/>
<line y1="-0.5" x2="66.8406" y2="-0.5" transform="matrix(0.707907 -0.706306 0.707907 0.706306 1 1289.21)" stroke="white"/>
<line y1="-0.5" x2="36.1597" y2="-0.5" transform="matrix(0.707907 -0.706306 0.707907 0.706306 6.42969 1272.96)" stroke="white"/>
</g>
<g opacity="0.6">
<line y1="-0.5" x2="56.4845" y2="-0.5" transform="matrix(0.707907 -0.706306 0.707907 0.706306 233.134 1728.41)" stroke="white"/>
<line y1="-0.5" x2="96.3559" y2="-0.5" transform="matrix(0.707907 -0.706306 0.707907 0.706306 210.789 1733.1)" stroke="white"/>
<line y1="-0.5" x2="121.276" y2="-0.5" transform="matrix(0.707907 -0.706306 0.707907 0.706306 191.971 1734.27)" stroke="white"/>
<line y1="-0.5" x2="142.873" y2="-0.5" transform="matrix(0.707907 -0.706306 0.707907 0.706306 174.332 1730.75)" stroke="white"/>
<line y1="-0.5" x2="157.824" y2="-0.5" transform="matrix(0.707907 -0.706306 0.707907 0.706306 156.691 1724.89)" stroke="white"/>
<line y1="-0.5" x2="164.47" y2="-0.5" transform="matrix(0.707907 -0.706306 0.707907 0.706306 141.402 1714.33)" stroke="white"/>
<line y1="-0.5" x2="164.47" y2="-0.5" transform="matrix(0.707907 -0.706306 0.707907 0.706306 128.465 1702.59)" stroke="white"/>
<line y1="-0.5" x2="154.502" y2="-0.5" transform="matrix(0.707907 -0.706306 0.707907 0.706306 117.88 1683.82)" stroke="white"/>
<line y1="-0.5" x2="134.566" y2="-0.5" transform="matrix(0.707907 -0.706306 0.707907 0.706306 112 1665.04)" stroke="white"/>
<line y1="-0.5" x2="101.34" y2="-0.5" transform="matrix(0.707907 -0.706306 0.707907 0.706306 112 1641.58)" stroke="white"/>
<line y1="-0.5" x2="54.8232" y2="-0.5" transform="matrix(0.707907 -0.706306 0.707907 0.706306 120.232 1616.94)" stroke="white"/>
</g>
<g opacity="0.6">
<line y1="-0.5" x2="46.6761" y2="-0.5" transform="matrix(0.707907 -0.706306 0.707907 0.706306 208.1 958.901)" stroke="white"/>
<line y1="-0.5" x2="79.624" y2="-0.5" transform="matrix(0.707907 -0.706306 0.707907 0.706306 189.634 962.78)" stroke="white"/>
<line y1="-0.5" x2="100.216" y2="-0.5" transform="matrix(0.707907 -0.706306 0.707907 0.706306 174.085 963.749)" stroke="white"/>
<line y1="-0.5" x2="118.063" y2="-0.5" transform="matrix(0.707907 -0.706306 0.707907 0.706306 159.507 960.841)" stroke="white"/>
<line y1="-0.5" x2="130.419" y2="-0.5" transform="matrix(0.707907 -0.706306 0.707907 0.706306 144.93 955.994)" stroke="white"/>
<line y1="-0.5" x2="135.91" y2="-0.5" transform="matrix(0.707907 -0.706306 0.707907 0.706306 132.296 947.267)" stroke="white"/>
<line y1="-0.5" x2="135.91" y2="-0.5" transform="matrix(0.707907 -0.706306 0.707907 0.706306 121.605 937.57)" stroke="white"/>
<line y1="-0.5" x2="127.673" y2="-0.5" transform="matrix(0.707907 -0.706306 0.707907 0.706306 112.859 922.056)" stroke="white"/>
<line y1="-0.5" x2="111.199" y2="-0.5" transform="matrix(0.707907 -0.706306 0.707907 0.706306 108 906.541)" stroke="white"/>
<line y1="-0.5" x2="83.7424" y2="-0.5" transform="matrix(0.707907 -0.706306 0.707907 0.706306 108 887.148)" stroke="white"/>
<line y1="-0.5" x2="45.3033" y2="-0.5" transform="matrix(0.707907 -0.706306 0.707907 0.706306 114.803 866.786)" stroke="white"/>
</g>
<g opacity="0.6">
<line y1="-0.5" x2="37.8225" y2="-0.5" transform="matrix(0.707907 -0.706306 0.707907 0.706306 90.1123 548.072)" stroke="white"/>
<line y1="-0.5" x2="64.5208" y2="-0.5" transform="matrix(0.707907 -0.706306 0.707907 0.706306 75.1494 551.214)" stroke="white"/>
<line y1="-0.5" x2="81.2072" y2="-0.5" transform="matrix(0.707907 -0.706306 0.707907 0.706306 62.5498 552)" stroke="white"/>
<line y1="-0.5" x2="95.6687" y2="-0.5" transform="matrix(0.707907 -0.706306 0.707907 0.706306 50.7373 549.643)" stroke="white"/>
<line y1="-0.5" x2="105.681" y2="-0.5" transform="matrix(0.707907 -0.706306 0.707907 0.706306 38.9248 545.715)" stroke="white"/>
<line y1="-0.5" x2="110.13" y2="-0.5" transform="matrix(0.707907 -0.706306 0.707907 0.706306 28.6875 538.643)" stroke="white"/>
<line y1="-0.5" x2="110.13" y2="-0.5" transform="matrix(0.707907 -0.706306 0.707907 0.706306 20.0249 530.786)" stroke="white"/>
<line y1="-0.5" x2="103.456" y2="-0.5" transform="matrix(0.707907 -0.706306 0.707907 0.706306 12.9375 518.215)" stroke="white"/>
<line y1="-0.5" x2="90.1066" y2="-0.5" transform="matrix(0.707907 -0.706306 0.707907 0.706306 9 505.643)" stroke="white"/>
<line y1="-0.5" x2="67.858" y2="-0.5" transform="matrix(0.707907 -0.706306 0.707907 0.706306 9 489.929)" stroke="white"/>
<line y1="-0.5" x2="36.7101" y2="-0.5" transform="matrix(0.707907 -0.706306 0.707907 0.706306 14.5122 473.429)" stroke="white"/>
</g>
<g opacity="0.6">
<line y1="-0.5" x2="71.6593" y2="-0.5" transform="matrix(0.711837 -0.702345 0.711837 0.702345 202.53 200.838)" stroke="white"/>
<line y1="-0.5" x2="122.242" y2="-0.5" transform="matrix(0.711837 -0.702345 0.711837 0.702345 174.024 206.76)" stroke="white"/>
<line y1="-0.5" x2="153.857" y2="-0.5" transform="matrix(0.711837 -0.702345 0.711837 0.702345 150.019 208.239)" stroke="white"/>
<line y1="-0.5" x2="181.256" y2="-0.5" transform="matrix(0.711837 -0.702345 0.711837 0.702345 127.515 203.799)" stroke="white"/>
<line y1="-0.5" x2="200.224" y2="-0.5" transform="matrix(0.711837 -0.702345 0.711837 0.702345 105.011 196.398)" stroke="white"/>
<line y1="-0.5" x2="208.655" y2="-0.5" transform="matrix(0.711837 -0.702345 0.711837 0.702345 85.5068 183.076)" stroke="white"/>
<line y1="-0.5" x2="208.655" y2="-0.5" transform="matrix(0.711837 -0.702345 0.711837 0.702345 69.0039 168.272)" stroke="white"/>
<line y1="-0.5" x2="196.009" y2="-0.5" transform="matrix(0.711837 -0.702345 0.711837 0.702345 55.5015 144.588)" stroke="white"/>
<line y1="-0.5" x2="170.718" y2="-0.5" transform="matrix(0.711837 -0.702345 0.711837 0.702345 48 120.903)" stroke="white"/>
<line y1="-0.5" x2="128.565" y2="-0.5" transform="matrix(0.711837 -0.702345 0.711837 0.702345 48 91.2979)" stroke="white"/>
<line y1="-0.5" x2="69.5516" y2="-0.5" transform="matrix(0.711837 -0.702345 0.711837 0.702345 58.502 60.2119)" stroke="white"/>
</g>
</svg>
