<svg width="19" height="19" viewBox="0 0 19 19" fill="none" xmlns="http://www.w3.org/2000/svg">
<path d="M10.2917 6.97223C10.9216 6.97223 11.5256 7.20928 11.971 7.63124C12.4164 8.0532 12.6667 8.62549 12.6667 9.22223C12.6667 9.42114 12.7501 9.61191 12.8985 9.75256C13.047 9.89321 13.2484 9.97223 13.4583 9.97223C13.6683 9.97223 13.8697 9.89321 14.0181 9.75256C14.1666 9.61191 14.25 9.42114 14.25 9.22223C14.25 8.22767 13.833 7.27384 13.0906 6.57058C12.3483 5.86732 11.3415 5.47223 10.2917 5.47223C10.0817 5.47223 9.88034 5.55125 9.73187 5.6919C9.58341 5.83255 9.5 6.02332 9.5 6.22223C9.5 6.42114 9.58341 6.61191 9.73187 6.75256C9.88034 6.89321 10.0817 6.97223 10.2917 6.97223Z" fill="white"/>
<path d="M10.2916 3.97223C11.7613 3.97223 13.1709 4.52535 14.2101 5.50992C15.2494 6.49448 15.8333 7.82984 15.8333 9.22223C15.8333 9.42114 15.9167 9.61191 16.0651 9.75256C16.2136 9.89321 16.415 9.97223 16.6249 9.97223C16.8349 9.97223 17.0362 9.89321 17.1847 9.75256C17.3332 9.61191 17.4166 9.42114 17.4166 9.22223C17.4166 7.43202 16.6659 5.71513 15.3297 4.44926C13.9935 3.18339 12.1813 2.47223 10.2916 2.47223C10.0816 2.47223 9.88026 2.55125 9.73179 2.6919C9.58333 2.83255 9.49992 3.02332 9.49992 3.22223C9.49992 3.42114 9.58333 3.61191 9.73179 3.75256C9.88026 3.89321 10.0816 3.97223 10.2916 3.97223ZM17.2187 12.9047C17.1751 12.7843 17.1 12.6764 17.0002 12.5911C16.9005 12.5058 16.7795 12.446 16.6487 12.4172L11.8987 11.3897C11.7697 11.362 11.6355 11.3654 11.5083 11.3994C11.3811 11.4335 11.2649 11.4972 11.1703 11.5847C11.0595 11.6822 11.0516 11.6897 10.537 12.6197C8.82953 11.8743 7.46137 10.5729 6.68159 8.95223C7.687 8.47223 7.69492 8.47223 7.79784 8.35973C7.89023 8.27015 7.95747 8.16007 7.99343 8.03954C8.02938 7.91901 8.0329 7.79188 8.00367 7.66973L6.91909 3.22223C6.88872 3.09825 6.82556 2.98363 6.73553 2.88916C6.64551 2.79469 6.53159 2.72348 6.4045 2.68223C6.21962 2.61967 6.02871 2.57445 5.8345 2.54723C5.63441 2.50328 5.43022 2.47815 5.22492 2.47223C4.25909 2.47223 3.33282 2.83571 2.64987 3.48271C1.96693 4.12971 1.58325 5.00723 1.58325 5.92223C1.58744 8.98426 2.87326 11.9197 5.15874 14.0849C7.44421 16.2501 10.5428 17.4683 13.7749 17.4722C14.2531 17.4722 14.7267 17.383 15.1685 17.2096C15.6104 17.0362 16.0118 16.7821 16.35 16.4617C16.6881 16.1414 16.9564 15.7611 17.1394 15.3425C17.3224 14.9239 17.4166 14.4753 17.4166 14.0222C17.4168 13.8313 17.4009 13.6407 17.3691 13.4522C17.3358 13.2659 17.2855 13.0827 17.2187 12.9047ZM13.7749 15.9722C10.9621 15.9702 8.265 14.9108 6.27601 13.0265C4.28702 11.1421 3.16868 8.58704 3.16659 5.92223C3.16867 5.40566 3.3862 4.91082 3.77176 4.54555C4.15732 4.18028 4.67966 3.9742 5.22492 3.97223H5.48617L6.33325 7.45223L5.90575 7.66223C5.22492 7.99973 4.68659 8.26973 4.97159 8.85473C5.43568 10.0994 6.18661 11.2305 7.16983 12.1659C8.15305 13.1013 9.34387 13.8174 10.6558 14.2622C11.3208 14.5172 11.582 14.0447 11.9383 13.3922L12.1678 12.9797L15.8333 13.7747V14.0222C15.8312 14.5388 15.6136 15.0336 15.2281 15.3989C14.8425 15.7642 14.3202 15.9703 13.7749 15.9722Z" fill="white"/>
</svg>
