<svg width="20" height="21" viewBox="0 0 20 21" fill="none" xmlns="http://www.w3.org/2000/svg">
<g clip-path="url(#clip0_354_166)">
<path d="M13.75 8.36251C13.75 9.35431 13.3549 10.3055 12.6517 11.0068C11.9484 11.7081 10.9946 12.1021 10 12.1021C9.00544 12.1021 8.05161 11.7081 7.34835 11.0068C6.64509 10.3055 6.25 9.35431 6.25 8.36251C6.25 7.37071 6.64509 6.41953 7.34835 5.71822C8.05161 5.01692 9.00544 4.62292 10 4.62292C10.9946 4.62292 11.9484 5.01692 12.6517 5.71822C13.3549 6.41953 13.75 7.37071 13.75 8.36251Z" fill="white"/>
<path fill-rule="evenodd" clip-rule="evenodd" d="M0 10.8556C0 8.21076 1.05357 5.67428 2.92893 3.80413C4.8043 1.93397 7.34784 0.883331 10 0.883331C12.6522 0.883331 15.1957 1.93397 17.0711 3.80413C18.9464 5.67428 20 8.21076 20 10.8556C20 13.5004 18.9464 16.0368 17.0711 17.907C15.1957 19.7771 12.6522 20.8278 10 20.8278C7.34784 20.8278 4.8043 19.7771 2.92893 17.907C1.05357 16.0368 0 13.5004 0 10.8556ZM10 2.12986C8.35222 2.12995 6.73796 2.59402 5.343 3.46866C3.94805 4.34331 2.8291 5.59298 2.11496 7.07383C1.40081 8.55468 1.12048 10.2065 1.30625 11.8393C1.49201 13.472 2.13632 15.0192 3.165 16.3029C4.0525 14.8769 6.00625 13.3486 10 13.3486C13.9938 13.3486 15.9462 14.8756 16.835 16.3029C17.8637 15.0192 18.508 13.472 18.6938 11.8393C18.8795 10.2065 18.5992 8.55468 17.885 7.07383C17.1709 5.59298 16.052 4.34331 14.657 3.46866C13.262 2.59402 11.6478 2.12995 10 2.12986Z" fill="white"/>
</g>
<defs>
<clipPath id="clip0_354_166">
<rect width="20" height="19.9444" fill="white" transform="translate(0 0.883331)"/>
</clipPath>
</defs>
</svg>
