<svg width="105" height="35" viewBox="0 0 105 35" fill="none" xmlns="http://www.w3.org/2000/svg">
<g clip-path="url(#clip0_339_59)">
<path d="M10.832 24V15.904L7.488 22.048H6.432L3.072 15.904V24H1.28V12.64H3.2L6.96 19.584L10.72 12.64H12.64V24H10.832ZM23.2819 12.64H24.9779L29.3939 24H27.5059L26.3059 20.912H21.9219L20.7379 24H18.8339L23.2819 12.64ZM25.9539 19.584L24.1299 14.608L22.2419 19.584H25.9539ZM36.3187 12.64L39.4547 17.104L42.5907 12.64H44.5747L40.4787 18.4L44.4467 24H42.4627L39.4547 19.696L36.4467 24H34.4467L38.4147 18.4L34.3187 12.64H36.3187ZM70.9773 24V15.904L67.6333 22.048H66.5773L63.2173 15.904V24H61.4253V12.64H63.3453L67.1053 19.584L70.8653 12.64H72.7853V24H70.9773ZM84.8832 24.08C83.9765 24.08 83.2085 23.9253 82.5792 23.616C81.9605 23.3067 81.4592 22.8853 81.0752 22.352C80.7019 21.8187 80.4245 21.2107 80.2432 20.528C80.0725 19.8453 79.9872 19.136 79.9872 18.4V12.64H81.7792V18.4C81.7792 18.9227 81.8325 19.4293 81.9392 19.92C82.0459 20.4 82.2165 20.832 82.4512 21.216C82.6859 21.6 83.0005 21.904 83.3952 22.128C83.8005 22.352 84.2965 22.464 84.8832 22.464C85.4805 22.464 85.9765 22.352 86.3712 22.128C86.7765 21.8933 87.0912 21.584 87.3152 21.2C87.5499 20.8053 87.7205 20.368 87.8272 19.888C87.9339 19.408 87.9872 18.912 87.9872 18.4V12.64H89.7952V18.4C89.7952 19.1787 89.6992 19.9147 89.5072 20.608C89.3259 21.2907 89.0379 21.8933 88.6432 22.416C88.2592 22.928 87.7579 23.3333 87.1392 23.632C86.5205 23.9307 85.7685 24.08 84.8832 24.08ZM103.698 15.312C103.592 15.1947 103.437 15.072 103.234 14.944C103.032 14.8053 102.792 14.6773 102.514 14.56C102.237 14.4427 101.938 14.3467 101.618 14.272C101.298 14.1973 100.968 14.16 100.626 14.16C99.8798 14.16 99.3251 14.2987 98.9624 14.576C98.5998 14.8533 98.4184 15.2373 98.4184 15.728C98.4184 16.0907 98.5198 16.3787 98.7224 16.592C98.9251 16.7947 99.2344 16.9653 99.6504 17.104C100.066 17.2427 100.589 17.392 101.218 17.552C101.986 17.7333 102.653 17.952 103.218 18.208C103.784 18.4533 104.216 18.784 104.514 19.2C104.813 19.616 104.962 20.1653 104.962 20.848C104.962 21.424 104.856 21.92 104.642 22.336C104.429 22.752 104.13 23.0933 103.746 23.36C103.362 23.616 102.92 23.808 102.418 23.936C101.917 24.0533 101.378 24.112 100.802 24.112C100.237 24.112 99.6718 24.0533 99.1064 23.936C98.5518 23.8187 98.0184 23.648 97.5064 23.424C97.0051 23.1893 96.5411 22.9067 96.1144 22.576L96.9304 21.04C97.0691 21.1787 97.2664 21.3333 97.5224 21.504C97.7891 21.664 98.0931 21.8187 98.4344 21.968C98.7864 22.1173 99.1651 22.2453 99.5704 22.352C99.9864 22.448 100.408 22.496 100.834 22.496C101.549 22.496 102.093 22.3733 102.466 22.128C102.85 21.872 103.042 21.5093 103.042 21.04C103.042 20.656 102.92 20.352 102.674 20.128C102.429 19.8933 102.072 19.696 101.602 19.536C101.133 19.376 100.573 19.216 99.9224 19.056C99.1758 18.8533 98.5518 18.6347 98.0504 18.4C97.5491 18.1547 97.1704 17.8453 96.9144 17.472C96.6691 17.088 96.5464 16.6027 96.5464 16.016C96.5464 15.2693 96.7278 14.64 97.0904 14.128C97.4531 13.6053 97.9438 13.216 98.5624 12.96C99.1918 12.6933 99.8958 12.56 100.674 12.56C101.186 12.56 101.672 12.6187 102.13 12.736C102.589 12.8427 103.016 12.992 103.41 13.184C103.816 13.376 104.184 13.5947 104.514 13.84L103.698 15.312Z" fill="#202020"/>
<g clip-path="url(#clip1_339_59)">
<path d="M52.9901 11.433L49.3252 11.433C49.2048 11.4325 49.0854 11.4559 48.974 11.5018C48.8626 11.5476 48.7614 11.6151 48.6763 11.7003C48.5911 11.7855 48.5236 11.8867 48.4777 11.998C48.4319 12.1094 48.4085 12.2288 48.409 12.3492C48.4097 12.5903 48.5058 12.8213 48.6763 12.9918C48.8467 13.1622 49.0777 13.2583 49.3188 13.259L52.0545 13.259L52.0545 23.7116L49.3188 23.7116C49.0777 23.7123 48.8467 23.8084 48.6763 23.9788C48.5058 24.1493 48.4097 24.3803 48.409 24.6213C48.4085 24.7418 48.4319 24.8612 48.4778 24.9725C48.5236 25.0839 48.5911 25.1851 48.6763 25.2703C48.7614 25.3555 48.8626 25.4229 48.974 25.4688C49.0854 25.5147 49.2048 25.538 49.3252 25.5375L52.9514 25.5376L56.5775 25.5375C56.6982 25.5388 56.818 25.516 56.9299 25.4706C57.0417 25.4252 57.1435 25.358 57.2292 25.273C57.3581 25.1456 57.4461 24.9827 57.4821 24.805C57.518 24.6274 57.5003 24.4431 57.431 24.2756C57.3618 24.1081 57.2443 23.965 57.0934 23.8645C56.9426 23.7641 56.7652 23.7108 56.584 23.7116H53.8869L53.8869 13.259L56.6227 13.259C56.7426 13.2586 56.8612 13.2345 56.9718 13.1883C57.0824 13.142 57.1828 13.0744 57.2673 12.9893C57.3518 12.9042 57.4187 12.8034 57.4642 12.6924C57.5097 12.5815 57.5329 12.4627 57.5324 12.3428C57.532 12.2229 57.508 12.1043 57.4617 11.9937C57.4154 11.883 57.3478 11.7826 57.2627 11.6982C57.1777 11.6137 57.0768 11.5468 56.9658 11.5013C56.8549 11.4558 56.7361 11.4326 56.6162 11.433L52.9901 11.433ZM51.1447 27.3571C50.9018 27.3571 50.6687 27.4536 50.4969 27.6254C50.3251 27.7972 50.2285 28.0303 50.2285 28.2733C50.2285 28.5163 50.3251 28.7493 50.4969 28.9211C50.6687 29.093 50.9018 29.1895 51.1447 29.1895L54.7967 29.1895C54.9168 29.189 55.0356 29.1648 55.1463 29.1183C55.257 29.0718 55.3575 29.0039 55.4419 28.9185C55.5273 28.8341 55.5952 28.7336 55.6417 28.6229C55.6882 28.5122 55.7124 28.3934 55.7129 28.2733C55.7134 28.1528 55.69 28.0335 55.6442 27.9221C55.5983 27.8107 55.5308 27.7095 55.4457 27.6243C55.3605 27.5391 55.2593 27.4717 55.1479 27.4258C55.0365 27.3799 54.9172 27.3566 54.7967 27.3571L51.1447 27.3571ZM54.7967 7.78109L51.1447 7.78109C50.9018 7.78109 50.6687 7.87762 50.4969 8.04944C50.3251 8.22126 50.2285 8.45431 50.2285 8.6973C50.2285 8.94029 50.3251 9.17334 50.4969 9.34516C50.6687 9.51698 50.9018 9.61351 51.1447 9.61351L54.7967 9.61351C54.9172 9.61401 55.0365 9.59065 55.1479 9.54478C55.2593 9.49891 55.3605 9.43144 55.4457 9.34626C55.5308 9.26108 55.5983 9.15989 55.6442 9.0485C55.69 8.93712 55.7134 8.81776 55.7129 8.6973C55.7134 8.57684 55.69 8.45748 55.6442 8.3461C55.5983 8.23471 55.5308 8.13351 55.4457 8.04834C55.3605 7.96316 55.2593 7.89569 55.1479 7.84982C55.0365 7.80395 54.9172 7.78059 54.7967 7.78109Z" fill="#9C001C"/>
</g>
</g>
<defs>
<clipPath id="clip0_339_59">
<rect width="105" height="35" fill="none"/>
</clipPath>
<clipPath id="clip1_339_59">
<rect width="21.8995" height="21.8995" fill="none" transform="translate(37.4854 18.4853) rotate(-45)"/>
</clipPath>
</defs>
</svg>
