<svg width="94" height="27" viewBox="0 0 94 27" fill="none" xmlns="http://www.w3.org/2000/svg">
<path d="M9.478 18.1454V11.0614L6.552 16.4374H5.628L2.688 11.0614V18.1454H1.12V8.20545H2.8L6.09 14.2814L9.38 8.20545H11.06V18.1454H9.478ZM20.3716 8.20545H21.8556L25.7196 18.1454H24.0676L23.0176 15.4434H19.1816L18.1456 18.1454H16.4796L20.3716 8.20545ZM22.7096 14.2814L21.1136 9.92745L19.4616 14.2814H22.7096ZM31.7789 8.20545L34.5229 12.1114L37.2669 8.20545H39.0029L35.4189 13.2454L38.8909 18.1454H37.1549L34.5229 14.3794L31.8909 18.1454H30.1409L33.6129 13.2454L30.0289 8.20545H31.7789ZM63.6171 18.1454V11.0614L60.6911 16.4374H59.7671L56.8271 11.0614V18.1454H55.2591V8.20545H56.9391L60.2291 14.2814L63.5191 8.20545H65.1991V18.1454H63.6171ZM75.7847 18.2154C74.9914 18.2154 74.3194 18.0801 73.7687 17.8094C73.2274 17.5388 72.7887 17.1701 72.4527 16.7034C72.126 16.2368 71.8834 15.7048 71.7247 15.1074C71.5754 14.5101 71.5007 13.8894 71.5007 13.2454V8.20545H73.0687V13.2454C73.0687 13.7028 73.1154 14.1461 73.2087 14.5754C73.302 14.9954 73.4514 15.3734 73.6567 15.7094C73.862 16.0454 74.1374 16.3114 74.4827 16.5074C74.8374 16.7034 75.2714 16.8014 75.7847 16.8014C76.3074 16.8014 76.7414 16.7034 77.0867 16.5074C77.4414 16.3021 77.7167 16.0314 77.9127 15.6954C78.118 15.3501 78.2674 14.9674 78.3607 14.5474C78.454 14.1274 78.5007 13.6934 78.5007 13.2454V8.20545H80.0827V13.2454C80.0827 13.9268 79.9987 14.5708 79.8307 15.1774C79.672 15.7748 79.42 16.3021 79.0747 16.7594C78.7387 17.2074 78.3 17.5621 77.7587 17.8234C77.2174 18.0848 76.5594 18.2154 75.7847 18.2154ZM92.248 10.5434C92.1547 10.4408 92.0194 10.3334 91.842 10.2214C91.6647 10.1001 91.4547 9.98811 91.212 9.88545C90.9694 9.78278 90.708 9.69878 90.428 9.63345C90.148 9.56811 89.8587 9.53545 89.56 9.53545C88.9067 9.53545 88.4214 9.65678 88.104 9.89945C87.7867 10.1421 87.628 10.4781 87.628 10.9074C87.628 11.2248 87.7167 11.4768 87.894 11.6634C88.0714 11.8408 88.342 11.9901 88.706 12.1114C89.07 12.2328 89.5274 12.3634 90.078 12.5034C90.75 12.6621 91.3334 12.8534 91.828 13.0774C92.3227 13.2921 92.7007 13.5814 92.962 13.9454C93.2234 14.3094 93.354 14.7901 93.354 15.3874C93.354 15.8914 93.2607 16.3254 93.074 16.6894C92.8874 17.0534 92.626 17.3521 92.29 17.5854C91.954 17.8094 91.5667 17.9774 91.128 18.0894C90.6894 18.1921 90.218 18.2434 89.714 18.2434C89.2194 18.2434 88.7247 18.1921 88.23 18.0894C87.7447 17.9868 87.278 17.8374 86.83 17.6414C86.3914 17.4361 85.9854 17.1888 85.612 16.8994L86.326 15.5554C86.4474 15.6768 86.62 15.8121 86.844 15.9614C87.0774 16.1014 87.3434 16.2368 87.642 16.3674C87.95 16.4981 88.2814 16.6101 88.636 16.7034C89 16.7874 89.3687 16.8294 89.742 16.8294C90.3674 16.8294 90.8434 16.7221 91.17 16.5074C91.506 16.2834 91.674 15.9661 91.674 15.5554C91.674 15.2194 91.5667 14.9534 91.352 14.7574C91.1374 14.5521 90.8247 14.3794 90.414 14.2394C90.0034 14.0994 89.5134 13.9594 88.944 13.8194C88.2907 13.6421 87.7447 13.4508 87.306 13.2454C86.8674 13.0308 86.536 12.7601 86.312 12.4334C86.0974 12.0974 85.99 11.6728 85.99 11.1594C85.99 10.5061 86.1487 9.95545 86.466 9.50745C86.7834 9.05011 87.2127 8.70945 87.754 8.48545C88.3047 8.25211 88.9207 8.13545 89.602 8.13545C90.05 8.13545 90.4747 8.18678 90.876 8.28945C91.2774 8.38278 91.6507 8.51345 91.996 8.68145C92.3507 8.84945 92.6727 9.04078 92.962 9.25545L92.248 10.5434Z" fill="white"/>
<g clip-path="url(#clip0_487_138)">
<path d="M46.8666 7.15882H43.6565C43.551 7.1584 43.4464 7.17823 43.3489 7.21717C43.2513 7.25611 43.1627 7.31338 43.0881 7.38569C43.0135 7.45799 42.9544 7.5439 42.9142 7.63846C42.874 7.73301 42.8536 7.83434 42.854 7.93659C42.8546 8.14123 42.9388 8.33732 43.0881 8.48202C43.2374 8.62672 43.4397 8.70828 43.6509 8.70889H46.0471L46.0471 17.5821L43.6509 17.5821C43.4397 17.5827 43.2374 17.6643 43.0881 17.809C42.9388 17.9537 42.8546 18.1498 42.854 18.3544C42.8536 18.4567 42.874 18.558 42.9142 18.6526C42.9544 18.7471 43.0135 18.833 43.0881 18.9053C43.1627 18.9776 43.2513 19.0349 43.3489 19.0738C43.4464 19.1128 43.551 19.1326 43.6565 19.1322H46.8326L50.0088 19.1322C50.1145 19.1332 50.2194 19.1139 50.3174 19.0754C50.4154 19.0368 50.5045 18.9798 50.5796 18.9076C50.6925 18.7995 50.7696 18.6612 50.8011 18.5104C50.8326 18.3596 50.817 18.2031 50.7564 18.0609C50.6958 17.9187 50.5928 17.7972 50.4607 17.712C50.3285 17.6267 50.1732 17.5815 50.0144 17.5821H47.6521L47.6521 8.70889L50.0483 8.70889C50.1534 8.70853 50.2573 8.68813 50.3542 8.64885C50.451 8.60957 50.539 8.55217 50.613 8.47995C50.687 8.40773 50.7456 8.32209 50.7854 8.22792C50.8253 8.13375 50.8456 8.03289 50.8452 7.93111C50.8448 7.82934 50.8238 7.72862 50.7832 7.63473C50.7427 7.54084 50.6835 7.4556 50.609 7.38388C50.5345 7.31217 50.4461 7.25538 50.3489 7.21676C50.2518 7.17815 50.1477 7.15845 50.0427 7.15882L46.8666 7.15882ZM45.2502 20.6768C45.0374 20.6768 44.8333 20.7587 44.6828 20.9046C44.5323 21.0505 44.4477 21.2483 44.4477 21.4546C44.4477 21.6609 44.5323 21.8587 44.6828 22.0045C44.8333 22.1504 45.0374 22.2323 45.2502 22.2323L48.449 22.2323C48.5542 22.2319 48.6582 22.2114 48.7552 22.1719C48.8522 22.1324 48.9402 22.0748 49.0141 22.0023C49.0889 21.9306 49.1484 21.8454 49.1891 21.7514C49.2299 21.6574 49.251 21.5565 49.2515 21.4546C49.2519 21.3523 49.2314 21.251 49.1913 21.1564C49.1511 21.0619 49.092 20.976 49.0174 20.9037C48.9428 20.8314 48.8541 20.7741 48.7566 20.7351C48.659 20.6962 48.5545 20.6764 48.449 20.6768L45.2502 20.6768ZM48.449 4.05866L45.2502 4.05866C45.0374 4.05866 44.8333 4.14061 44.6828 4.28647C44.5323 4.43233 44.4477 4.63016 44.4477 4.83644C44.4477 5.04272 44.5323 5.24055 44.6828 5.38641C44.8333 5.53227 45.0374 5.61422 45.2502 5.61422L48.449 5.61422C48.5545 5.61464 48.659 5.5948 48.7566 5.55587C48.8541 5.51693 48.9428 5.45965 49.0174 5.38735C49.092 5.31504 49.1511 5.22913 49.1913 5.13458C49.2315 5.04002 49.2519 4.9387 49.2515 4.83644C49.2519 4.73418 49.2315 4.63286 49.1913 4.5383C49.1511 4.44375 49.092 4.35784 49.0174 4.28553C48.9428 4.21323 48.8541 4.15595 48.7566 4.11701C48.659 4.07808 48.5545 4.05824 48.449 4.05866Z" fill="#9C001C"/>
</g>
<defs>
<clipPath id="clip0_487_138">
<rect width="18.8885" height="18.8885" fill="white" transform="matrix(0.718086 -0.695954 0.718086 0.695954 33.2861 13.1455)"/>
</clipPath>
</defs>
</svg>
