<svg width="133" height="38" viewBox="0 0 133 38" fill="none" xmlns="http://www.w3.org/2000/svg">
<path d="M13.54 25.9253V15.8053L9.36 23.4853H8.04L3.84 15.8053V25.9253H1.6V11.7253H4L8.7 20.4053L13.4 11.7253H15.8V25.9253H13.54ZM29.1023 11.7253H31.2223L36.7423 25.9253H34.3823L32.8823 22.0653H27.4023L25.9223 25.9253H23.5423L29.1023 11.7253ZM32.4423 20.4053L30.1623 14.1853L27.8023 20.4053H32.4423ZM45.3984 11.7253L49.3184 17.3053L53.2384 11.7253H55.7184L50.5984 18.9253L55.5584 25.9253H53.0784L49.3184 20.5453L45.5584 25.9253H43.0584L48.0184 18.9253L42.8984 11.7253H45.3984ZM89.4748 25.9253V15.8053L85.2948 23.4853H83.9748L79.7748 15.8053V25.9253H77.5348V11.7253H79.9348L84.6348 20.4053L89.3348 11.7253H91.7348V25.9253H89.4748ZM106.857 26.0253C105.724 26.0253 104.764 25.832 103.977 25.4453C103.204 25.0586 102.577 24.532 102.097 23.8653C101.63 23.1986 101.284 22.4386 101.057 21.5853C100.844 20.732 100.737 19.8453 100.737 18.9253V11.7253H102.977V18.9253C102.977 19.5786 103.044 20.212 103.177 20.8253C103.31 21.4253 103.524 21.9653 103.817 22.4453C104.11 22.9253 104.504 23.3053 104.997 23.5853C105.504 23.8653 106.124 24.0053 106.857 24.0053C107.604 24.0053 108.224 23.8653 108.717 23.5853C109.224 23.292 109.617 22.9053 109.897 22.4253C110.19 21.932 110.404 21.3853 110.537 20.7853C110.67 20.1853 110.737 19.5653 110.737 18.9253V11.7253H112.997V18.9253C112.997 19.8986 112.877 20.8186 112.637 21.6853C112.41 22.5386 112.05 23.292 111.557 23.9453C111.077 24.5853 110.45 25.092 109.677 25.4653C108.904 25.8386 107.964 26.0253 106.857 26.0253ZM130.376 15.0653C130.243 14.9186 130.05 14.7653 129.796 14.6053C129.543 14.432 129.243 14.272 128.896 14.1253C128.55 13.9786 128.176 13.8586 127.776 13.7653C127.376 13.672 126.963 13.6253 126.536 13.6253C125.603 13.6253 124.91 13.7986 124.456 14.1453C124.003 14.492 123.776 14.972 123.776 15.5853C123.776 16.0386 123.903 16.3986 124.156 16.6653C124.41 16.9186 124.796 17.132 125.316 17.3053C125.836 17.4786 126.49 17.6653 127.276 17.8653C128.236 18.092 129.07 18.3653 129.776 18.6853C130.483 18.992 131.023 19.4053 131.396 19.9253C131.77 20.4453 131.956 21.132 131.956 21.9853C131.956 22.7053 131.823 23.3253 131.556 23.8453C131.29 24.3653 130.916 24.792 130.436 25.1253C129.956 25.4453 129.403 25.6853 128.776 25.8453C128.15 25.992 127.476 26.0653 126.756 26.0653C126.05 26.0653 125.343 25.992 124.636 25.8453C123.943 25.6986 123.276 25.4853 122.636 25.2053C122.01 24.912 121.43 24.5586 120.896 24.1453L121.916 22.2253C122.09 22.3986 122.336 22.592 122.656 22.8053C122.99 23.0053 123.37 23.1986 123.796 23.3853C124.236 23.572 124.71 23.732 125.216 23.8653C125.736 23.9853 126.263 24.0453 126.796 24.0453C127.69 24.0453 128.37 23.892 128.836 23.5853C129.316 23.2653 129.556 22.812 129.556 22.2253C129.556 21.7453 129.403 21.3653 129.096 21.0853C128.79 20.792 128.343 20.5453 127.756 20.3453C127.17 20.1453 126.47 19.9453 125.656 19.7453C124.723 19.492 123.943 19.2186 123.316 18.9253C122.69 18.6186 122.216 18.232 121.896 17.7653C121.59 17.2853 121.436 16.6786 121.436 15.9453C121.436 15.012 121.663 14.2253 122.116 13.5853C122.57 12.932 123.183 12.4453 123.956 12.1253C124.743 11.792 125.623 11.6253 126.596 11.6253C127.236 11.6253 127.843 11.6986 128.416 11.8453C128.99 11.9786 129.523 12.1653 130.016 12.4053C130.523 12.6453 130.983 12.9186 131.396 13.2253L130.376 15.0653Z" fill="white"/>
<g clip-path="url(#clip0_877_191)">
<path d="M65.958 10.3471L61.4488 10.3471C61.3006 10.3465 61.1538 10.3751 61.0167 10.4314C60.8797 10.4877 60.7552 10.5705 60.6504 10.675C60.5456 10.7795 60.4626 10.9037 60.4061 11.0403C60.3497 11.177 60.3209 11.3235 60.3216 11.4713C60.3224 11.767 60.4406 12.0504 60.6504 12.2596C60.8601 12.4687 61.1443 12.5866 61.4409 12.5875L64.8069 12.5875L64.8069 25.4125L61.4409 25.4125C61.1443 25.4134 60.8601 25.5313 60.6504 25.7404C60.4406 25.9496 60.3224 26.233 60.3216 26.5288C60.3209 26.6765 60.3497 26.823 60.4061 26.9597C60.4626 27.0963 60.5456 27.2205 60.6504 27.325C60.7552 27.4295 60.8797 27.5123 61.0167 27.5686C61.1538 27.6249 61.3006 27.6535 61.4489 27.6529L65.9104 27.6529L70.372 27.6529C70.5205 27.6544 70.6679 27.6265 70.8055 27.5708C70.9431 27.515 71.0683 27.4326 71.1738 27.3283C71.3324 27.172 71.4407 26.9721 71.4849 26.7542C71.5292 26.5362 71.5073 26.31 71.4221 26.1045C71.337 25.899 71.1924 25.7234 71.0067 25.6002C70.8211 25.4769 70.6029 25.4116 70.3799 25.4125L67.0615 25.4125L67.0615 12.5875L70.4275 12.5875C70.5751 12.587 70.721 12.5575 70.8571 12.5007C70.9932 12.4439 71.1167 12.361 71.2207 12.2566C71.3246 12.1522 71.4069 12.0284 71.4629 11.8923C71.5189 11.7562 71.5474 11.6104 71.5469 11.4633C71.5464 11.3162 71.5168 11.1707 71.4599 11.035C71.4029 10.8992 71.3198 10.776 71.2151 10.6724C71.1104 10.5687 70.9863 10.4867 70.8498 10.4308C70.7133 10.375 70.5671 10.3466 70.4196 10.3471L65.958 10.3471ZM63.6876 29.8854C63.3886 29.8854 63.1019 30.0039 62.8904 30.2147C62.679 30.4255 62.5603 30.7114 62.5603 31.0096C62.5603 31.3077 62.679 31.5937 62.8904 31.8045C63.1019 32.0153 63.3886 32.1337 63.6876 32.1337L68.1809 32.1338C68.3286 32.1331 68.4748 32.1035 68.6111 32.0464C68.7473 31.9894 68.8709 31.906 68.9748 31.8013C69.0798 31.6977 69.1634 31.5744 69.2206 31.4386C69.2778 31.3027 69.3076 31.1569 69.3082 31.0096C69.3088 30.8618 69.28 30.7153 69.2236 30.5787C69.1672 30.442 69.0842 30.3178 68.9794 30.2133C68.8746 30.1088 68.75 30.026 68.613 29.9698C68.476 29.9135 68.3291 29.8848 68.1809 29.8854L63.6876 29.8854ZM68.1809 5.86625L63.6876 5.86625C63.3886 5.86625 63.1019 5.98469 62.8904 6.19551C62.679 6.40634 62.5603 6.69227 62.5603 6.99042C62.5603 7.28857 62.679 7.5745 62.8904 7.78532C63.1019 7.99615 63.3886 8.11459 63.6876 8.11459L68.1809 8.11459C68.3291 8.11519 68.476 8.08653 68.613 8.03025C68.75 7.97397 68.8746 7.89119 68.9794 7.78668C69.0842 7.68217 69.1672 7.558 69.2236 7.42134C69.28 7.28467 69.3088 7.13822 69.3082 6.99042C69.3088 6.84262 69.28 6.69617 69.2236 6.5595C69.1672 6.42284 69.0842 6.29867 68.9794 6.19416C68.8746 6.08965 68.75 6.00687 68.613 5.95059C68.476 5.89431 68.3291 5.86565 68.1809 5.86625Z" fill="#9C001C"/>
</g>
<defs>
<clipPath id="clip0_877_191">
<rect width="26.9075" height="26.9075" fill="white" transform="matrix(0.70809 -0.706123 0.70809 0.706123 46.8813 19)"/>
</clipPath>
</defs>
</svg>
