<svg width="478" height="528" viewBox="0 0 478 528" fill="none" xmlns="http://www.w3.org/2000/svg">
<g opacity="0.8">
<circle cx="431" cy="445" r="3" fill="#202020"/>
<circle cx="431" cy="461" r="3" fill="#202020"/>
<circle cx="431" cy="477" r="3" fill="#202020"/>
<circle cx="453" cy="477" r="3" fill="#202020"/>
<circle cx="475" cy="477" r="3" fill="#202020"/>
<circle cx="475" cy="493" r="3" fill="#202020"/>
<circle cx="453" cy="493" r="3" fill="#202020"/>
<circle cx="431" cy="493" r="3" fill="#202020"/>
<circle cx="431" cy="509" r="3" fill="#202020"/>
<circle cx="431" cy="525" r="3" fill="#202020"/>
<circle cx="453" cy="525" r="3" fill="#202020"/>
<circle cx="475" cy="525" r="3" fill="#202020"/>
<circle cx="453" cy="509" r="3" fill="#202020"/>
<circle cx="475" cy="509" r="3" fill="#202020"/>
<circle cx="453" cy="461" r="3" fill="#202020"/>
<circle cx="475" cy="461" r="3" fill="#202020"/>
<circle cx="453" cy="445" r="3" fill="#202020"/>
<circle cx="475" cy="445" r="3" fill="#202020"/>
</g>
<g opacity="0.8">
<line x1="103.646" y1="135.646" x2="137.646" y2="101.646" stroke="#5A0B19"/>
<line x1="84.6464" y1="139.646" x2="142.646" y2="81.6464" stroke="#5A0B19"/>
<line x1="68.6464" y1="140.646" x2="141.646" y2="67.6464" stroke="#5A0B19"/>
<line x1="53.6464" y1="137.646" x2="139.646" y2="51.6464" stroke="#5A0B19"/>
<line x1="38.6464" y1="132.646" x2="133.646" y2="37.6464" stroke="#5A0B19"/>
<line x1="25.6464" y1="123.646" x2="124.646" y2="24.6465" stroke="#5A0B19"/>
<line x1="14.6464" y1="113.646" x2="113.646" y2="14.6464" stroke="#5A0B19"/>
<line x1="5.64645" y1="97.6464" x2="98.6464" y2="4.64644" stroke="#5A0B19"/>
<line x1="0.646447" y1="81.6464" x2="81.6464" y2="0.646447" stroke="#5A0B19"/>
<line x1="0.646447" y1="61.6464" x2="61.6464" y2="0.646447" stroke="#5A0B19"/>
<line x1="7.64645" y1="40.6464" x2="40.6464" y2="7.64645" stroke="#5A0B19"/>
</g>
</svg>
